<?xml version="1.0" encoding="UTF-8" ?>
<!DOCTYPE svg PUBLIC "-//W3C//DTD SVG 1.1//EN" "http://www.w3.org/Graphics/SVG/1.1/DTD/svg11.dtd">
<svg width="500pt" height="500pt" viewBox="0 0 500 500" version="1.1" xmlns="http://www.w3.org/2000/svg">
<g id="#c29401ff">
<path fill="#c29401" opacity="1.00" d=" M 241.12 46.16 C 244.41 44.36 246.54 40.86 249.97 39.42 C 253.31 41.64 256.22 44.49 259.79 46.37 C 277.58 55.81 298.27 56.60 316.95 63.40 C 317.44 63.59 318.41 63.99 318.90 64.19 C 320.47 64.12 321.90 64.92 323.36 65.44 C 333.21 69.40 342.77 75.17 349.17 83.83 C 355.98 92.78 358.61 104.00 359.93 114.95 C 360.19 115.29 360.71 115.95 360.98 116.28 C 371.73 113.42 383.29 111.55 394.16 114.99 C 407.06 118.83 416.35 129.59 423.39 140.54 C 433.21 155.00 440.22 171.79 453.50 183.61 C 456.75 186.71 460.77 188.80 464.70 190.90 C 463.25 195.20 461.31 199.37 460.61 203.88 C 456.92 228.30 465.53 252.97 460.34 277.27 C 457.92 289.63 450.29 300.71 439.90 307.77 C 434.78 311.55 428.82 313.89 423.26 316.90 C 429.38 326.19 435.25 336.57 434.86 348.08 C 435.01 363.44 425.02 376.37 415.10 387.13 C 404.87 399.25 392.12 409.83 385.68 424.67 C 383.90 428.28 383.82 432.52 382.10 436.09 C 371.13 435.02 360.21 437.46 350.02 441.42 C 331.78 447.66 314.35 457.23 294.88 459.06 C 283.94 460.07 272.67 457.44 263.46 451.42 C 256.95 447.58 251.62 442.20 246.12 437.11 C 238.56 445.99 229.63 454.62 218.07 457.77 C 208.47 460.63 198.23 459.09 188.82 456.29 C 175.90 452.06 163.73 445.95 151.05 441.11 C 143.64 438.30 135.96 435.73 127.96 435.53 C 124.24 435.36 120.53 435.94 116.82 435.82 C 114.82 430.69 113.69 425.19 110.70 420.48 C 102.93 407.59 91.85 397.20 82.49 385.51 C 72.80 374.42 64.23 361.11 63.25 346.03 C 62.35 333.41 67.92 321.62 73.76 310.81 C 65.68 307.01 56.88 304.03 50.40 297.58 C 43.03 291.10 38.84 281.63 37.76 271.98 C 36.25 258.99 38.13 245.94 39.48 233.01 C 40.36 222.45 41.55 211.61 38.81 201.20 C 37.90 197.51 35.61 194.33 34.95 190.57 C 44.80 185.26 52.10 176.41 58.25 167.27 C 68.96 151.84 77.41 134.34 92.09 122.10 C 101.54 113.65 114.51 110.01 127.02 110.50 C 132.89 110.47 138.58 112.08 144.39 112.58 C 144.74 99.65 147.76 85.73 157.42 76.43 C 168.89 65.53 184.91 61.88 199.97 59.02 C 213.98 55.95 228.71 53.82 241.12 46.16 M 248.16 55.66 C 246.07 60.34 240.94 62.37 236.52 64.24 C 225.22 70.21 212.21 71.18 200.00 74.33 C 186.11 77.18 170.99 81.29 161.89 93.02 C 155.21 101.11 153.62 111.80 152.47 121.89 C 143.70 121.50 134.81 119.26 126.10 121.41 C 120.75 122.98 115.20 124.37 110.55 127.59 C 99.58 134.40 91.77 145.08 85.02 155.86 C 82.91 158.92 81.28 162.39 78.22 164.67 C 78.14 163.67 77.96 161.67 77.88 160.67 L 77.99 164.85 L 75.69 163.29 C 77.03 164.43 78.64 166.08 77.29 167.93 C 73.27 175.06 68.41 181.77 62.46 187.42 C 59.42 190.19 55.82 192.23 52.44 194.54 C 52.47 194.98 52.55 195.86 52.58 196.30 C 55.80 200.13 56.69 205.22 57.40 210.01 C 57.68 216.61 57.85 223.26 57.27 229.86 C 56.10 237.20 55.90 244.65 54.82 252.01 C 53.88 259.33 54.82 266.71 55.93 273.96 C 57.30 279.60 60.35 284.71 63.67 289.41 C 69.97 297.15 79.29 301.41 88.48 304.70 C 87.22 307.12 85.95 309.54 84.64 311.93 C 78.87 322.14 76.61 334.69 80.15 346.05 C 82.42 355.44 88.42 363.21 94.12 370.78 C 102.16 380.68 110.96 389.95 118.76 400.05 C 122.81 406.08 126.13 412.70 127.63 419.85 C 131.92 419.61 136.25 418.04 140.53 419.25 C 148.53 421.03 156.53 423.09 164.06 426.39 C 174.62 430.57 184.75 435.90 195.77 438.87 C 202.92 441.19 210.60 440.95 218.00 440.35 C 230.12 438.48 239.20 429.38 246.99 420.61 C 252.97 427.79 260.53 433.74 269.11 437.51 C 277.27 441.00 286.35 441.15 295.06 440.37 C 315.72 437.17 333.95 426.01 354.08 420.92 C 359.79 419.27 365.76 419.70 371.62 419.75 C 372.67 413.97 374.94 408.53 377.86 403.46 C 381.63 396.39 387.49 390.84 392.57 384.75 C 403.19 373.49 415.29 362.02 419.04 346.43 C 420.76 338.44 419.69 330.01 416.25 322.62 C 414.65 317.77 410.29 314.26 409.53 309.11 C 414.98 308.59 419.70 305.60 424.01 302.44 C 429.52 298.17 434.87 293.36 438.27 287.18 C 441.00 281.78 443.27 276.02 443.81 269.94 C 446.49 251.62 441.82 233.35 442.54 215.01 C 442.23 207.90 444.95 201.23 447.05 194.58 C 433.26 188.35 425.17 174.83 417.71 162.37 C 410.84 150.25 403.85 137.30 391.92 129.42 C 386.10 125.26 378.94 123.82 372.01 122.78 C 365.12 122.24 358.49 125.04 351.75 125.51 C 350.67 116.60 348.44 107.68 343.71 99.96 C 337.86 89.63 327.12 83.29 316.44 78.91 C 301.05 73.53 284.78 71.24 269.28 66.20 C 262.60 63.87 255.88 60.92 250.86 55.79 C 249.95 55.74 249.05 55.70 248.16 55.66 Z" />
<path fill="#c29401" opacity="1.00" d=" M 214.26 261.31 C 224.48 259.49 234.32 264.31 243.21 268.84 C 242.99 271.88 242.91 274.96 242.06 277.92 C 240.98 282.11 241.43 286.51 240.63 290.75 C 239.74 291.20 238.82 291.60 237.89 291.95 C 235.24 294.19 240.31 294.49 241.77 294.56 C 241.92 295.98 242.06 297.40 242.24 298.83 C 244.09 302.94 245.52 307.22 247.29 311.36 C 244.58 306.04 243.15 300.08 239.52 295.23 C 238.25 295.02 236.98 294.81 235.72 294.60 C 235.55 290.56 240.08 288.81 240.59 285.05 C 241.58 279.70 241.87 274.24 242.63 268.86 C 236.86 265.25 230.38 263.29 223.78 261.88 C 220.62 261.81 217.46 261.95 214.31 261.64 L 214.26 261.31 Z" />
<path fill="#c29401" opacity="1.00" d=" M 253.99 320.89 C 254.55 310.53 253.55 300.10 254.53 289.77 C 255.46 299.79 254.45 309.91 255.08 319.95 C 255.28 320.62 255.66 321.96 255.86 322.63 C 256.12 321.69 256.65 319.81 256.92 318.87 C 257.32 318.71 258.13 318.38 258.53 318.22 C 258.28 318.66 257.79 319.54 257.54 319.99 C 258.14 323.18 258.72 326.39 258.70 329.66 C 255.90 329.69 253.10 329.75 250.30 329.67 L 250.29 329.44 C 250.59 329.25 251.21 328.85 251.52 328.66 C 253.18 328.58 254.84 328.46 256.50 328.29 C 257.41 326.80 257.31 324.96 257.69 323.32 C 255.64 323.77 253.61 324.28 251.57 324.76 L 251.75 323.83 C 252.27 323.12 252.80 322.43 253.34 321.74 L 253.99 320.89 Z" />
<path fill="#c29401" opacity="1.00" d=" M 319.74 303.85 C 321.24 303.78 322.74 303.72 324.24 303.66 C 324.33 305.20 324.42 306.75 324.51 308.30 C 322.89 308.36 321.28 308.42 319.67 308.47 C 319.68 306.93 319.70 305.39 319.74 303.85 M 321.21 305.49 C 320.69 307.09 321.26 307.63 322.93 307.09 C 323.44 305.48 322.87 304.95 321.21 305.49 Z" />
</g>
<g id="#01a44bff">
<path fill="#01a44b" opacity="1.00" d=" M 248.16 55.66 C 249.05 55.70 249.95 55.74 250.86 55.79 C 255.88 60.92 262.60 63.87 269.28 66.20 C 284.78 71.24 301.05 73.53 316.44 78.91 C 327.12 83.29 337.86 89.63 343.71 99.96 C 348.44 107.68 350.67 116.60 351.75 125.51 C 358.49 125.04 365.12 122.24 372.01 122.78 C 378.94 123.82 386.10 125.26 391.92 129.42 C 403.85 137.30 410.84 150.25 417.71 162.37 C 425.17 174.83 433.26 188.35 447.05 194.58 C 444.95 201.23 442.23 207.90 442.54 215.01 C 441.82 233.35 446.49 251.62 443.81 269.94 C 443.27 276.02 441.00 281.78 438.27 287.18 C 434.87 293.36 429.52 298.17 424.01 302.44 C 419.70 305.60 414.98 308.59 409.53 309.11 C 410.29 314.26 414.65 317.77 416.25 322.62 C 419.69 330.01 420.76 338.44 419.04 346.43 C 415.29 362.02 403.19 373.49 392.57 384.75 C 387.49 390.84 381.63 396.39 377.86 403.46 C 374.94 408.53 372.67 413.97 371.62 419.75 C 365.76 419.70 359.79 419.27 354.08 420.92 C 333.95 426.01 315.72 437.17 295.06 440.37 C 286.35 441.15 277.27 441.00 269.11 437.51 C 260.53 433.74 252.97 427.79 246.99 420.61 C 239.20 429.38 230.12 438.48 218.00 440.35 C 210.60 440.95 202.92 441.19 195.77 438.87 C 184.75 435.90 174.62 430.57 164.06 426.39 C 156.53 423.09 148.53 421.03 140.53 419.25 C 136.25 418.04 131.92 419.61 127.63 419.85 C 126.13 412.70 122.81 406.08 118.76 400.05 C 110.96 389.95 102.16 380.68 94.12 370.78 C 88.42 363.21 82.42 355.44 80.15 346.05 C 76.61 334.69 78.87 322.14 84.64 311.93 C 85.95 309.54 87.22 307.12 88.48 304.70 C 79.29 301.41 69.97 297.15 63.67 289.41 C 60.35 284.71 57.30 279.60 55.93 273.96 C 54.82 266.71 53.88 259.33 54.82 252.01 C 55.90 244.65 56.10 237.20 57.27 229.86 C 57.85 223.26 57.68 216.61 57.40 210.01 C 56.69 205.22 55.80 200.13 52.58 196.30 C 52.55 195.86 52.47 194.98 52.44 194.54 C 55.82 192.23 59.42 190.19 62.46 187.42 C 68.41 181.77 73.27 175.06 77.29 167.93 C 78.64 166.08 77.03 164.43 75.69 163.29 L 77.99 164.85 L 77.88 160.67 C 77.96 161.67 78.14 163.67 78.22 164.67 C 81.28 162.39 82.91 158.92 85.02 155.86 C 91.77 145.08 99.58 134.40 110.55 127.59 C 115.20 124.37 120.75 122.98 126.10 121.41 C 134.81 119.26 143.70 121.50 152.47 121.89 C 153.62 111.80 155.21 101.11 161.89 93.02 C 170.99 81.29 186.11 77.18 200.00 74.33 C 212.21 71.18 225.22 70.21 236.52 64.24 C 240.94 62.37 246.07 60.34 248.16 55.66 M 236.23 109.45 C 236.26 110.21 236.33 111.74 236.36 112.51 C 238.04 112.55 239.72 112.60 241.41 112.65 C 241.48 117.32 241.64 122.01 242.37 126.64 C 243.61 126.63 244.85 126.63 246.10 126.63 C 246.11 121.95 245.48 117.30 245.48 112.63 C 247.91 111.95 251.47 112.02 250.89 108.47 C 245.98 108.31 241.05 108.48 236.23 109.45 M 257.54 126.53 C 262.08 127.51 261.52 122.19 261.79 119.29 C 265.87 119.08 266.81 123.54 268.82 126.16 C 269.81 128.07 272.30 127.20 273.98 127.69 C 272.84 125.09 271.13 122.71 270.37 119.96 C 271.12 118.17 272.49 116.72 273.48 115.06 C 273.56 113.11 272.37 111.27 270.91 110.08 C 267.03 108.58 262.81 108.53 258.71 108.34 C 258.01 114.37 256.91 120.44 257.54 126.53 M 225.75 120.93 C 223.77 119.02 221.89 117.03 219.97 115.07 C 218.54 113.72 217.08 111.78 214.85 112.53 C 212.98 113.95 214.18 116.25 214.37 118.14 C 215.29 122.15 215.62 126.29 216.88 130.22 C 217.47 130.34 218.64 130.57 219.22 130.69 C 221.62 127.83 218.99 123.67 219.30 120.23 C 221.91 122.81 224.30 125.63 227.16 127.96 C 228.65 129.56 232.17 128.50 231.25 126.01 C 229.92 120.56 230.23 114.56 227.21 109.66 C 223.09 112.21 226.00 117.11 225.75 120.93 M 282.89 111.43 C 281.46 117.10 280.09 122.79 278.40 128.40 C 283.14 129.98 287.99 131.24 292.95 131.84 C 292.83 131.04 292.57 129.46 292.45 128.67 C 289.39 127.49 286.21 126.65 283.15 125.48 C 283.57 124.72 284.42 123.21 284.84 122.46 C 287.62 123.26 290.41 124.05 293.28 124.48 C 293.37 123.26 293.63 122.06 293.68 120.84 C 290.86 120.24 288.10 119.45 285.37 118.55 C 285.42 117.99 285.52 116.85 285.58 116.29 C 288.88 116.40 292.12 117.05 295.36 117.64 C 295.64 117.24 296.21 116.43 296.49 116.03 L 296.45 114.84 C 292.25 112.69 287.46 112.25 282.89 111.43 M 298.73 132.12 C 298.06 134.17 298.93 135.05 301.33 134.77 C 302.91 132.09 304.23 129.24 306.13 126.75 C 307.06 130.53 307.45 134.47 308.86 138.12 C 310.00 138.96 312.13 139.19 312.67 137.52 C 315.07 132.68 317.08 127.64 319.03 122.61 C 317.75 122.45 316.49 122.30 315.22 122.15 C 314.09 125.19 312.59 128.06 311.10 130.93 C 310.14 126.80 309.94 122.47 308.41 118.49 C 307.76 118.15 306.48 117.46 305.83 117.12 C 302.80 121.76 301.00 127.09 298.73 132.12 M 195.57 121.99 C 195.52 127.00 195.33 132.05 195.86 137.04 C 196.40 137.47 197.48 138.34 198.02 138.77 C 200.24 137.39 199.50 134.68 199.70 132.49 C 201.34 131.72 202.90 130.42 204.79 130.45 C 206.94 131.75 208.74 134.24 211.57 133.42 C 211.53 132.83 211.44 131.65 211.39 131.06 C 207.03 126.47 202.45 122.08 197.81 117.77 C 196.90 119.06 195.39 120.22 195.57 121.99 M 172.66 133.08 C 172.03 136.24 175.07 138.48 177.81 139.16 C 177.24 140.62 176.67 142.08 176.11 143.55 C 179.61 145.95 184.30 146.60 187.68 143.57 C 191.59 141.46 191.48 135.05 187.15 133.51 C 183.50 133.03 179.96 134.59 176.31 134.45 C 177.06 133.44 177.54 132.27 178.19 131.20 C 181.03 131.64 184.36 132.96 186.41 130.08 C 182.53 125.23 174.33 127.32 172.66 133.08 M 333.08 131.91 C 329.93 135.56 327.29 139.66 324.71 143.72 C 323.55 145.20 324.49 147.03 325.97 147.83 C 328.02 145.79 329.75 143.45 331.46 141.13 C 330.70 143.78 329.84 146.42 329.50 149.17 C 329.79 151.10 331.93 151.05 333.30 150.31 C 335.33 149.22 337.15 147.79 339.02 146.45 C 337.72 148.94 335.22 151.26 335.55 154.25 C 336.56 154.51 338.16 155.20 338.90 154.03 C 341.90 150.20 344.56 146.09 347.21 142.01 C 348.84 139.99 346.19 137.43 344.05 138.63 C 340.76 140.61 337.87 143.20 334.43 144.95 C 335.35 141.12 336.41 137.33 337.72 133.61 C 336.43 132.73 334.67 130.04 333.08 131.91 M 159.22 140.21 C 157.12 142.02 154.29 143.38 153.08 145.99 C 154.90 149.59 158.09 152.25 160.44 155.50 C 161.73 156.78 162.77 159.11 164.94 158.75 C 168.69 156.86 171.65 153.77 174.88 151.15 C 174.41 150.40 173.47 148.90 173.00 148.15 C 169.88 150.27 167.22 153.56 163.21 153.87 C 162.69 150.00 166.45 148.37 168.98 146.37 C 168.45 145.17 167.86 144.00 167.26 142.84 C 164.83 144.64 162.48 146.53 160.23 148.55 C 159.52 147.72 158.81 146.88 158.10 146.05 C 160.70 143.69 164.74 142.03 165.02 138.05 C 162.91 138.22 160.82 138.73 159.22 140.21 M 246.88 144.27 C 216.90 145.95 187.72 159.24 166.94 180.94 C 150.25 198.37 139.01 221.03 135.93 245.01 C 135.38 252.32 133.80 259.65 135.19 266.97 C 135.94 282.52 140.42 297.77 147.43 311.63 C 149.26 315.34 151.83 318.65 153.48 322.46 C 153.61 323.97 152.74 325.36 152.50 326.84 C 155.01 330.66 158.44 333.79 161.18 337.46 C 169.42 339.20 177.71 337.42 186.00 337.55 C 195.58 336.99 205.55 335.09 214.93 337.91 C 211.81 341.07 208.50 344.04 205.32 347.15 C 209.73 352.29 215.28 356.23 220.03 361.02 C 221.44 362.34 222.82 363.74 224.54 364.68 C 226.25 365.17 227.44 363.55 228.58 362.59 C 234.15 357.05 239.55 351.32 245.50 346.17 C 248.33 347.23 250.99 349.07 254.04 349.36 C 256.91 348.23 259.56 346.23 262.80 346.51 C 267.47 352.05 272.96 356.83 277.97 362.06 C 279.38 363.29 281.01 365.56 283.16 364.44 C 289.61 359.00 295.77 353.19 301.97 347.44 C 299.11 343.79 295.59 340.76 292.09 337.76 C 300.44 335.87 308.98 336.58 317.39 337.48 C 326.81 337.18 336.22 339.33 345.58 337.49 C 348.58 334.14 351.35 330.59 354.28 327.18 C 354.17 324.17 355.30 321.40 357.01 318.99 C 375.85 289.14 379.04 250.11 365.50 217.54 C 356.79 195.85 341.20 177.10 321.71 164.26 C 303.60 152.20 282.16 145.22 260.43 144.18 C 255.93 143.52 251.38 143.69 246.88 144.27 M 341.91 157.78 C 342.39 158.71 342.63 159.88 343.54 160.52 C 345.12 160.48 346.64 159.97 348.21 159.72 C 350.12 159.09 351.39 161.19 352.43 162.45 C 352.26 164.36 351.73 166.21 351.49 168.11 C 352.28 168.91 353.12 169.66 354.01 170.36 C 356.82 164.60 359.24 158.66 361.87 152.82 C 360.98 151.98 360.08 151.14 359.19 150.31 C 353.40 152.75 347.73 155.43 341.91 157.78 M 143.63 154.69 C 141.29 156.79 138.12 158.72 137.28 161.91 C 141.32 166.30 145.90 170.19 150.35 174.16 C 150.89 173.12 151.42 172.08 151.94 171.03 C 150.85 169.49 149.62 168.07 148.51 166.56 C 149.91 164.05 152.96 162.14 152.66 158.96 C 152.63 154.72 146.94 151.62 143.63 154.69 M 362.69 169.70 C 360.25 171.61 356.43 173.11 357.35 176.92 C 360.37 176.46 362.63 174.05 365.53 173.44 C 366.96 174.72 368.74 176.34 368.53 178.46 C 366.84 180.15 364.86 181.49 363.00 182.96 C 363.93 183.83 364.86 184.69 365.80 185.55 C 370.13 182.22 374.81 179.35 379.00 175.83 C 381.01 175.03 378.56 170.91 377.06 172.82 C 375.40 173.68 373.84 174.71 372.27 175.71 C 370.69 173.98 369.37 172.00 369.05 169.62 C 370.27 168.92 371.49 168.22 372.71 167.51 C 372.69 166.33 372.66 165.15 372.64 163.97 C 368.65 164.50 365.83 167.52 362.69 169.70 M 126.35 174.40 C 124.93 178.26 126.44 182.16 127.56 185.88 C 126.00 185.18 124.44 184.46 122.83 183.90 C 121.09 182.70 120.37 185.17 119.51 186.12 C 123.55 188.96 127.78 191.51 132.07 193.95 C 133.47 194.86 135.22 195.02 136.73 194.25 C 137.05 191.64 134.09 190.81 132.46 189.48 C 132.43 188.51 132.40 187.54 132.37 186.57 C 135.38 186.54 138.40 186.51 141.41 186.52 C 141.94 185.12 142.48 183.72 143.02 182.33 C 138.79 182.46 134.55 182.60 130.32 182.64 C 129.78 179.85 129.26 177.06 128.71 174.28 C 128.12 174.31 126.94 174.37 126.35 174.40 M 367.93 189.52 C 368.28 190.45 368.66 191.37 369.09 192.27 C 371.47 193.01 375.21 191.65 376.24 194.68 C 377.56 197.13 376.02 199.48 374.18 201.08 C 374.66 202.46 375.23 203.79 375.71 205.18 C 380.30 200.84 384.38 196.01 388.70 191.40 C 388.60 190.34 388.52 189.29 388.43 188.24 C 381.58 188.32 374.69 188.25 367.93 189.52 M 117.20 196.97 C 112.98 198.70 110.41 203.64 111.71 208.07 C 113.24 211.77 117.20 213.97 121.03 214.46 C 125.89 215.05 130.51 210.85 130.59 206.00 C 130.98 199.36 122.92 195.17 117.20 196.97 M 389.35 205.33 C 384.82 207.41 386.89 213.09 386.43 217.00 C 384.44 216.60 382.04 215.49 382.48 213.03 C 383.37 210.55 385.63 208.35 383.35 205.80 C 381.35 207.43 378.41 208.94 378.48 211.94 C 377.97 215.47 380.45 218.26 382.59 220.70 C 384.52 220.65 386.46 220.62 388.40 220.61 C 391.19 217.44 390.57 213.15 390.45 209.26 C 391.55 209.38 392.66 209.49 393.77 209.61 C 393.66 212.25 391.98 214.91 392.70 217.49 C 394.81 218.19 396.25 216.38 397.74 215.25 C 397.46 212.70 397.89 209.85 396.34 207.63 C 394.88 205.46 391.82 203.45 389.35 205.33 M 104.74 233.05 C 110.32 234.32 115.97 235.24 121.49 236.80 C 122.62 233.18 124.20 229.36 123.34 225.51 C 121.23 220.95 115.68 218.94 110.93 219.68 C 105.75 221.60 103.64 228.11 104.74 233.05 M 383.31 228.45 C 383.35 229.58 383.39 230.71 383.44 231.85 C 389.51 231.13 395.83 230.50 401.49 228.18 C 401.51 227.48 401.56 226.10 401.59 225.41 C 395.38 225.55 389.35 227.20 383.31 228.45 M 396.78 237.56 C 393.05 239.44 393.17 244.16 392.37 247.69 C 391.38 247.62 390.40 247.56 389.42 247.50 C 389.43 245.83 389.44 244.16 389.48 242.50 C 390.44 241.33 393.04 240.76 392.40 238.90 C 392.79 236.63 389.46 237.33 388.47 238.25 C 385.05 240.14 384.72 244.60 385.82 247.95 C 386.61 250.37 389.27 251.27 391.13 252.72 C 393.10 251.47 395.53 250.48 396.54 248.21 C 397.47 246.10 397.43 243.74 397.72 241.50 C 398.61 241.55 399.50 241.61 400.40 241.67 C 400.42 242.90 400.43 244.13 400.46 245.37 C 399.25 247.06 395.88 248.96 398.84 250.75 C 403.44 250.73 405.70 245.01 403.89 241.24 C 402.95 238.33 399.72 236.52 396.78 237.56 M 102.72 242.83 C 102.62 243.43 102.42 244.65 102.32 245.25 C 105.36 246.89 108.95 246.27 112.26 246.67 C 109.83 248.91 106.88 250.40 104.09 252.09 C 102.34 252.88 102.42 254.94 102.07 256.53 C 108.16 257.62 114.35 257.49 120.51 257.50 C 120.50 256.55 120.47 254.64 120.46 253.68 C 116.99 253.58 113.53 253.45 110.07 253.23 C 114.16 250.43 118.84 248.45 122.36 244.86 C 119.27 241.90 114.84 242.67 110.96 242.39 C 108.22 242.40 105.36 241.92 102.72 242.83 M 388.92 260.72 C 386.90 260.60 383.92 263.04 386.01 264.96 C 389.17 266.72 392.78 267.50 396.07 268.99 C 392.27 270.86 387.56 270.01 384.14 272.73 C 384.28 273.29 384.56 274.42 384.70 274.99 C 388.54 276.80 392.67 277.92 396.58 279.59 C 398.56 280.16 400.84 281.76 402.80 280.27 C 402.65 275.95 397.02 276.22 393.94 274.99 C 393.80 274.69 393.52 274.11 393.38 273.81 C 396.38 273.45 399.51 273.35 402.35 272.17 C 404.37 271.58 404.27 268.25 402.23 267.73 C 399.56 266.40 396.73 265.42 394.03 264.17 C 397.52 263.54 401.10 263.28 404.50 262.20 C 405.18 260.46 404.73 259.31 403.16 258.74 C 398.40 259.35 393.71 260.39 388.92 260.72 M 106.86 265.80 C 101.34 268.92 102.02 278.81 108.24 280.74 C 113.86 283.46 122.35 279.67 122.35 272.94 C 122.57 269.24 119.69 266.66 117.25 264.35 C 113.80 264.50 109.86 263.60 106.86 265.80 M 386.45 288.79 C 386.05 290.27 385.66 291.75 385.27 293.24 C 383.37 293.68 381.48 294.13 379.59 294.59 C 379.45 295.70 379.32 296.81 379.19 297.93 C 384.51 297.80 389.74 296.74 395.02 296.17 C 397.04 295.82 401.15 294.91 399.12 292.14 C 394.22 288.41 389.11 284.85 383.81 281.69 C 380.13 283.59 385.00 286.86 386.45 288.79 M 108.29 290.66 C 108.17 295.23 108.32 300.13 111.42 303.81 C 116.75 301.79 122.29 300.46 127.77 298.97 C 127.71 297.74 127.66 296.51 127.61 295.29 C 125.37 295.76 123.14 296.21 120.89 296.63 C 120.06 293.12 117.98 290.19 115.24 287.90 C 112.79 288.48 110.45 289.39 108.29 290.66 M 146.33 386.80 C 146.83 386.74 147.85 386.64 148.36 386.58 C 148.64 384.83 148.16 382.66 149.89 381.53 C 152.32 381.93 153.22 384.85 154.71 386.55 C 155.34 386.62 156.61 386.74 157.24 386.80 C 156.36 385.13 155.55 383.44 154.79 381.72 C 156.64 379.66 158.10 375.42 154.99 373.86 C 152.20 373.35 149.34 373.54 146.52 373.49 C 146.30 377.92 146.28 382.36 146.33 386.80 M 162.45 374.36 C 157.22 377.91 159.37 387.62 166.05 387.61 C 173.44 388.36 175.28 376.47 169.06 373.74 C 166.92 373.40 164.28 372.89 162.45 374.36 M 175.94 384.91 C 177.75 388.92 185.05 388.46 186.01 383.98 C 186.60 380.84 186.39 377.63 186.49 374.47 C 185.49 374.41 184.50 374.41 183.50 374.48 C 183.59 377.71 183.59 380.95 183.50 384.18 C 182.90 384.54 181.70 385.27 181.09 385.63 C 180.40 385.34 179.03 384.77 178.34 384.48 C 178.30 380.57 178.81 376.47 176.97 372.86 C 174.85 376.49 175.28 380.94 175.94 384.91 M 190.24 374.21 C 188.90 377.86 189.59 382.19 189.81 386.07 C 190.63 388.28 193.26 387.40 195.05 387.40 C 197.48 387.09 200.58 385.71 200.63 382.87 C 201.00 379.61 200.94 374.89 197.05 373.82 C 194.89 373.65 191.97 372.76 190.24 374.21 M 204.48 387.57 C 207.58 387.33 211.28 388.30 213.72 385.79 C 211.33 385.07 208.87 384.64 206.40 384.36 C 206.25 380.47 207.29 376.17 204.91 372.75 C 202.83 377.43 203.45 382.70 204.48 387.57 M 218.27 374.22 C 213.83 377.28 214.35 385.84 220.03 387.21 C 225.03 389.31 229.69 383.77 228.52 378.99 C 228.39 374.02 222.09 371.98 218.27 374.22 M 230.50 373.82 C 231.77 374.87 233.05 375.93 234.31 377.00 C 234.33 380.50 234.38 384.00 234.43 387.50 C 234.94 387.48 235.96 387.43 236.47 387.41 C 236.59 383.90 236.38 380.38 236.78 376.89 C 237.40 375.47 239.40 375.57 240.48 374.66 C 237.54 372.65 233.79 373.80 230.50 373.82 M 243.32 374.23 C 243.40 377.90 242.97 381.64 243.72 385.27 C 245.83 388.87 250.86 387.86 253.63 385.61 C 253.68 381.81 253.74 378.00 253.75 374.20 C 253.18 374.22 252.05 374.26 251.49 374.27 C 251.50 378.34 252.30 382.95 249.15 386.15 C 248.09 385.06 246.31 384.56 245.72 383.10 C 245.33 380.18 245.54 377.24 245.57 374.31 C 245.01 374.29 243.88 374.25 243.32 374.23 M 257.35 374.29 C 257.37 378.68 257.40 383.07 257.54 387.46 C 260.56 387.45 263.57 387.46 266.59 387.48 C 266.60 387.00 266.60 386.03 266.60 385.54 C 264.42 385.19 262.25 384.81 260.08 384.47 C 259.65 381.08 259.52 377.66 259.64 374.25 C 259.07 374.26 257.92 374.28 257.35 374.29 M 279.55 384.67 C 277.31 384.89 275.47 383.66 273.79 382.36 C 273.69 383.43 273.60 384.50 273.51 385.57 C 274.16 386.24 274.82 386.91 275.47 387.59 C 277.36 387.33 279.80 387.83 281.06 386.03 C 283.10 381.85 282.03 377.06 280.94 372.77 C 278.31 376.17 279.90 380.74 279.55 384.67 M 288.25 376.11 C 286.71 379.64 285.48 383.29 284.11 386.89 C 284.65 386.79 285.73 386.58 286.27 386.48 C 287.70 385.40 288.89 383.05 291.01 383.66 C 293.10 384.67 295.05 385.96 296.98 387.26 C 295.66 382.45 294.40 377.29 291.16 373.37 C 289.41 373.02 288.90 374.98 288.25 376.11 M 299.48 374.29 C 299.56 378.41 299.56 382.53 299.50 386.65 C 300.01 386.67 301.03 386.71 301.55 386.72 C 301.91 384.47 300.82 381.43 302.97 379.91 C 304.97 382.71 306.74 385.70 309.23 388.11 C 310.93 383.32 311.40 377.47 308.98 372.85 C 307.86 375.56 307.61 378.50 307.42 381.40 C 305.50 379.26 303.83 376.92 302.55 374.34 C 301.52 374.32 300.50 374.30 299.48 374.29 M 315.37 387.40 C 315.85 384.81 316.25 382.21 316.66 379.60 C 318.85 382.46 321.00 385.35 323.19 388.21 C 325.45 384.01 324.26 379.12 324.55 374.58 C 324.01 374.46 322.92 374.22 322.38 374.11 C 322.06 376.48 321.74 378.86 321.41 381.23 C 319.35 378.29 317.29 375.32 314.78 372.74 C 313.56 377.34 312.09 383.39 315.37 387.40 M 327.04 387.31 C 328.39 386.46 329.63 385.45 330.84 384.42 C 332.38 384.37 333.93 384.36 335.49 384.38 C 336.69 385.64 337.94 387.11 339.92 386.73 C 337.67 382.09 337.02 376.36 332.93 372.84 C 330.10 377.26 328.14 382.19 327.04 387.31 M 342.33 374.21 C 342.32 378.39 342.30 382.58 342.31 386.76 C 342.86 386.75 343.97 386.74 344.53 386.73 C 344.51 384.98 344.48 383.22 344.47 381.47 C 346.38 381.55 348.47 381.01 350.26 381.84 C 350.45 383.45 350.50 385.09 350.57 386.72 C 351.06 386.72 352.04 386.71 352.53 386.71 C 352.93 382.57 353.26 378.40 352.66 374.26 C 352.10 374.25 350.96 374.23 350.39 374.23 C 350.45 375.69 350.52 377.15 350.59 378.62 C 348.56 379.12 346.51 378.88 344.50 378.46 C 344.52 377.06 344.54 375.67 344.56 374.28 C 344.00 374.26 342.89 374.23 342.33 374.21 M 189.43 398.81 C 189.48 402.43 194.08 402.54 196.63 403.61 C 196.64 404.71 196.64 405.81 196.65 406.92 C 194.01 406.47 191.41 405.80 188.82 405.12 C 190.23 409.65 196.10 410.40 199.35 407.36 C 199.66 405.71 199.71 404.03 199.84 402.37 C 197.39 401.25 194.88 400.27 192.35 399.39 C 192.36 398.81 192.40 397.66 192.42 397.08 C 194.68 397.51 196.92 398.08 199.13 398.74 C 198.95 395.82 196.30 395.03 193.97 394.20 C 192.29 395.44 189.16 396.18 189.43 398.81 M 204.10 394.42 C 202.12 398.37 201.85 403.30 203.78 407.31 C 206.08 410.45 210.64 409.48 213.12 407.10 C 214.05 403.30 213.48 399.33 213.53 395.46 C 213.00 395.44 211.95 395.41 211.42 395.39 C 211.52 399.14 211.22 402.88 210.45 406.55 C 208.81 406.52 207.18 406.50 205.55 406.47 C 205.29 402.44 206.31 398.05 204.10 394.42 M 217.38 395.45 C 217.29 399.88 217.32 404.32 217.39 408.76 C 217.93 408.70 219.03 408.58 219.57 408.52 C 219.55 406.87 219.54 405.21 219.53 403.56 C 220.40 403.52 221.29 403.48 222.17 403.45 C 223.72 405.78 225.39 408.20 228.10 409.30 C 227.55 407.08 226.62 404.99 225.54 402.98 C 226.61 401.62 227.67 400.27 228.74 398.92 C 227.95 397.82 227.21 396.69 226.30 395.69 C 223.36 395.14 220.35 395.45 217.38 395.45 M 234.58 396.58 C 232.69 400.63 231.12 404.85 230.08 409.20 C 231.99 408.37 233.59 407.04 235.02 405.56 C 236.27 405.63 237.53 405.72 238.78 405.83 C 240.01 407.14 241.40 408.29 242.93 409.24 C 241.88 404.37 240.29 399.48 237.48 395.33 C 236.47 395.46 234.90 395.31 234.58 396.58 M 245.49 395.51 C 245.46 399.86 245.47 404.22 245.49 408.58 C 245.96 408.61 246.91 408.68 247.38 408.72 C 247.77 406.83 248.18 404.96 248.60 403.08 C 252.74 403.13 252.75 409.42 257.11 408.76 C 255.71 406.07 254.10 403.50 252.41 400.98 C 253.81 399.07 255.13 397.09 256.13 394.93 C 252.98 395.74 250.80 398.24 248.50 400.35 C 248.15 398.67 247.80 397.01 247.45 395.35 C 246.96 395.39 245.98 395.47 245.49 395.51 M 263.41 395.35 C 261.51 399.80 259.39 404.28 259.09 409.19 C 260.44 408.03 261.77 406.84 263.11 405.66 C 264.34 405.69 265.58 405.73 266.82 405.78 C 268.15 406.98 269.46 408.19 270.79 409.40 C 270.72 404.39 268.03 400.03 266.29 395.48 C 265.33 395.43 264.37 395.39 263.41 395.35 M 286.67 395.57 C 287.96 396.35 289.23 397.15 290.48 398.00 C 291.07 401.57 291.41 405.17 291.44 408.80 C 291.97 408.68 293.04 408.45 293.57 408.33 C 293.52 404.88 293.52 401.43 293.57 397.98 C 294.95 397.26 296.33 396.52 297.71 395.79 C 294.04 395.31 290.35 395.24 286.67 395.57 M 302.53 395.39 C 300.54 399.78 298.22 404.20 298.09 409.14 C 299.44 407.99 300.78 406.82 302.12 405.64 C 303.34 405.64 304.57 405.65 305.80 405.67 C 307.06 407.17 308.38 408.88 310.57 408.78 C 309.08 404.27 307.30 399.87 305.37 395.54 C 304.42 395.48 303.48 395.43 302.53 395.39 M 273.93 395.70 C 273.48 400.04 273.22 404.51 274.22 408.80 C 277.34 408.97 276.09 404.91 276.64 402.98 C 279.43 403.82 281.13 406.20 282.71 408.48 C 283.32 408.54 284.54 408.66 285.16 408.72 C 284.18 406.76 283.19 404.82 282.18 402.90 C 282.96 402.07 283.76 401.25 284.55 400.44 C 284.55 399.07 284.56 397.71 284.56 396.35 C 281.11 395.39 277.47 394.93 273.93 395.70 Z" />
<path fill="#01a44b" opacity="1.00" d=" M 262.37 112.40 C 264.41 112.48 266.44 112.55 268.48 112.63 C 268.43 113.87 268.44 115.11 268.40 116.36 C 266.47 116.34 264.55 116.33 262.64 116.32 C 262.55 115.01 262.46 113.71 262.37 112.40 Z" />
<path fill="#01a44b" opacity="1.00" d=" M 178.69 138.77 C 181.39 138.03 184.16 137.53 186.95 137.30 C 186.28 139.15 185.57 141.80 183.06 141.61 C 180.86 142.24 179.41 140.62 178.69 138.77 Z" />
<path fill="#01a44b" opacity="1.00" d=" M 262.94 147.40 C 275.58 147.17 287.92 150.91 299.60 155.43 C 307.72 158.46 315.21 162.89 322.42 167.63 C 323.74 168.57 325.25 169.48 325.93 171.03 C 325.27 172.99 322.97 173.47 321.34 174.38 C 317.30 175.97 313.35 178.27 308.95 178.61 C 307.13 177.69 305.73 176.18 304.25 174.83 C 292.28 163.26 277.81 154.68 262.94 147.40 Z" />
<path fill="#01a44b" opacity="1.00" d=" M 182.17 171.10 C 196.93 159.00 215.26 151.55 233.97 148.28 C 237.03 147.70 240.14 147.40 243.25 147.35 C 242.52 148.56 241.55 149.48 240.32 150.12 C 225.69 157.54 211.78 166.80 200.47 178.77 C 193.69 178.48 187.70 174.70 182.17 171.10 Z" />
<path fill="#01a44b" opacity="1.00" d=" M 259.49 150.84 C 268.02 156.75 274.83 164.82 280.89 173.17 C 283.24 176.67 286.23 179.99 286.94 184.30 C 277.83 185.87 268.62 186.94 259.36 186.71 C 259.44 174.76 259.26 162.80 259.49 150.84 Z" />
<path fill="#01a44b" opacity="1.00" d=" M 224.30 162.27 C 230.23 158.37 236.30 154.60 242.93 152.00 C 234.69 160.18 226.69 168.81 220.94 178.98 C 219.89 180.51 219.23 182.49 217.67 183.57 C 212.55 183.94 207.68 181.72 202.78 180.54 C 208.62 173.08 216.62 167.67 224.30 162.27 Z" />
<path fill="#01a44b" opacity="1.00" d=" M 247.53 151.88 C 248.86 158.17 248.16 164.62 248.30 170.99 C 248.17 176.50 248.92 182.11 247.46 187.51 C 238.58 187.04 229.69 186.17 220.93 184.65 C 226.94 171.79 236.85 161.07 247.53 151.88 Z" />
<path fill="#01a44b" opacity="1.00" d=" M 266.01 151.95 C 279.57 158.29 292.08 166.81 303.07 176.95 C 303.94 177.75 304.59 178.75 305.00 179.86 C 300.65 181.88 295.84 182.78 291.12 183.46 C 288.64 181.39 287.42 178.16 285.59 175.54 C 280.22 166.77 272.89 159.51 266.01 151.95 Z" />
<path fill="#01a44b" opacity="1.00" d=" M 143.65 159.65 C 144.81 158.24 147.09 156.59 148.64 158.40 C 149.07 161.10 146.34 162.47 144.79 164.15 C 144.10 162.84 142.50 161.20 143.65 159.65 Z" />
<path fill="#01a44b" opacity="1.00" d=" M 178.83 173.15 C 185.18 175.29 190.73 179.28 197.11 181.44 C 193.81 186.34 189.69 190.60 186.46 195.55 C 181.11 202.78 177.33 210.99 173.51 219.09 C 171.48 218.38 169.44 217.63 167.72 216.32 C 162.70 212.72 157.84 208.77 153.91 203.99 C 153.02 203.18 153.74 202.09 154.19 201.28 C 160.88 190.69 169.40 181.36 178.83 173.15 Z" />
<path fill="#01a44b" opacity="1.00" d=" M 327.98 173.81 C 329.75 172.79 331.23 174.60 332.51 175.56 C 340.56 182.87 347.87 191.06 353.83 200.17 C 354.83 201.80 356.54 204.00 354.85 205.79 C 349.72 211.90 343.30 217.14 336.14 220.69 C 333.18 215.89 331.56 210.39 328.58 205.59 C 323.89 196.63 317.20 189.01 311.16 180.98 C 317.04 179.25 322.43 176.33 327.98 173.81 Z" />
<path fill="#01a44b" opacity="1.00" d=" M 200.25 182.40 C 205.46 184.00 210.75 185.31 216.09 186.44 C 214.57 191.25 212.13 195.69 210.34 200.40 C 206.72 210.19 203.46 220.25 202.21 230.66 C 199.87 230.52 197.50 230.38 195.28 229.57 C 188.69 227.33 182.27 224.60 176.05 221.47 C 177.90 213.52 182.51 206.57 186.68 199.67 C 190.57 193.44 195.38 187.87 200.25 182.40 Z" />
<path fill="#01a44b" opacity="1.00" d=" M 292.23 185.91 C 297.74 184.99 303.04 183.13 308.56 182.21 C 316.11 190.98 323.27 200.23 328.38 210.67 C 330.31 214.67 332.98 218.59 332.72 223.24 C 324.34 226.35 316.23 231.20 307.16 231.74 C 306.01 228.64 305.63 225.34 304.91 222.13 C 303.34 214.53 300.92 207.14 298.23 199.87 C 296.49 195.10 293.78 190.76 292.23 185.91 Z" />
<path fill="#01a44b" opacity="1.00" d=" M 218.89 187.42 C 228.51 188.02 238.04 190.14 247.72 189.52 C 248.88 198.62 248.05 207.82 248.27 216.96 C 247.63 223.44 247.93 229.92 248.34 236.40 C 256.72 236.95 265.10 236.10 273.49 236.45 C 273.65 233.11 273.72 229.76 273.74 226.41 C 270.28 226.36 266.83 226.07 263.40 225.57 C 263.50 223.92 263.59 222.28 263.69 220.63 C 267.00 220.61 270.31 220.59 273.62 220.58 C 273.71 216.54 273.70 212.51 273.58 208.48 C 270.24 208.47 266.89 208.46 263.55 208.45 C 263.55 206.46 263.56 204.46 263.56 202.47 C 266.87 202.43 270.18 202.43 273.49 202.48 C 273.71 199.16 273.73 195.83 273.49 192.52 C 268.81 192.61 264.12 192.59 259.44 192.47 C 259.49 191.52 259.54 190.56 259.60 189.61 C 269.31 189.48 279.06 188.44 288.57 186.45 C 291.88 190.52 293.54 195.56 295.56 200.33 C 298.93 208.58 301.27 217.20 303.15 225.90 C 303.67 228.37 303.66 230.90 303.74 233.42 C 293.25 235.64 282.69 237.69 271.97 238.32 C 262.66 238.70 253.33 238.55 244.02 238.42 C 232.93 237.87 221.94 236.12 211.09 233.81 C 208.75 233.34 206.52 232.46 204.31 231.58 C 204.93 229.09 205.51 226.60 205.98 224.08 C 208.44 211.29 213.23 199.10 218.89 187.42 Z" />
<path fill="#01a44b" opacity="1.00" d=" M 115.50 202.35 C 117.20 201.52 118.88 200.13 120.90 200.51 C 122.99 200.96 124.72 202.34 126.55 203.39 C 126.52 205.03 126.49 206.68 126.46 208.33 C 125.75 209.06 125.04 209.79 124.34 210.53 C 121.03 210.87 117.99 209.71 115.46 207.63 C 115.48 205.86 115.49 204.10 115.50 202.35 Z" />
<path fill="#01a44b" opacity="1.00" d=" M 151.53 205.94 C 155.43 209.18 158.80 213.04 163.01 215.92 C 165.84 218.16 169.20 219.71 171.77 222.25 C 171.45 226.29 169.73 230.05 168.87 233.98 C 165.07 247.96 164.85 262.65 166.65 276.95 C 157.80 274.39 149.66 269.86 141.78 265.17 C 139.99 263.84 137.11 262.74 137.50 260.02 C 137.43 241.19 142.40 222.40 151.53 205.94 Z" />
<path fill="#01a44b" opacity="1.00" d=" M 344.43 218.58 C 349.36 215.32 353.21 210.75 357.78 207.03 C 366.92 223.53 371.25 242.40 371.35 261.17 C 370.94 262.92 369.26 263.88 367.86 264.79 C 359.76 269.52 351.13 273.24 342.42 276.67 C 342.45 263.10 343.82 249.26 340.33 235.97 C 339.55 231.74 337.49 227.73 337.46 223.40 C 339.58 221.52 342.11 220.20 344.43 218.58 Z" />
<path fill="#01a44b" opacity="1.00" d=" M 108.03 229.36 C 108.88 227.45 109.57 225.40 110.95 223.79 C 113.85 223.22 116.98 224.04 119.22 225.99 C 119.64 227.85 119.56 229.79 119.66 231.69 C 115.67 231.58 111.79 230.61 108.03 229.36 Z" />
<path fill="#01a44b" opacity="1.00" d=" M 173.33 227.12 C 173.71 226.05 173.98 224.77 175.00 224.10 C 180.84 225.98 186.13 229.28 192.04 231.02 C 195.08 232.33 198.92 232.39 201.29 234.88 C 200.48 243.27 199.40 251.68 199.60 260.12 C 193.83 260.79 188.04 259.92 182.46 258.49 C 178.32 264.60 176.87 272.03 173.18 278.36 C 172.04 278.47 170.90 278.55 169.76 278.67 C 167.91 270.91 168.46 262.91 168.36 255.00 C 168.50 245.51 170.74 236.21 173.33 227.12 Z" />
<path fill="#01a44b" opacity="1.00" d=" M 332.75 225.74 C 334.23 224.50 334.75 226.68 335.33 227.71 C 340.77 243.63 341.59 260.81 339.34 277.40 C 337.56 277.90 335.71 279.15 333.84 278.35 C 330.07 272.04 328.65 264.58 324.46 258.48 C 319.73 259.64 314.85 260.68 309.95 260.30 C 308.46 252.17 308.99 243.51 307.32 235.28 C 315.97 232.58 324.61 229.79 332.75 225.74 Z" />
<path fill="#01a44b" opacity="1.00" d=" M 203.93 235.13 C 215.62 236.97 227.14 240.14 239.05 240.45 C 241.19 240.65 243.56 240.24 245.50 241.40 C 246.52 244.29 246.35 247.41 246.54 250.44 C 251.53 250.42 256.53 250.53 261.50 250.08 C 261.47 247.28 261.47 244.49 261.47 241.70 C 265.62 241.26 269.76 240.62 273.94 240.49 C 284.35 240.10 294.50 237.60 304.77 236.13 C 306.02 243.92 306.45 251.84 306.61 259.73 C 302.04 259.82 297.48 259.51 292.97 258.81 C 282.72 257.65 273.01 261.85 263.82 265.78 C 263.36 261.35 262.69 256.94 262.36 252.50 C 256.88 251.03 251.19 251.84 245.60 251.61 C 244.30 256.26 243.86 261.08 243.35 265.86 C 236.63 263.35 230.15 259.93 222.93 259.05 C 216.06 257.65 209.23 259.86 202.34 259.76 C 202.13 251.51 202.84 243.30 203.93 235.13 Z" />
<path fill="#01a44b" opacity="1.00" d=" M 137.99 265.93 C 142.36 268.27 146.54 270.99 150.99 273.19 C 156.31 276.01 162.01 277.98 167.43 280.56 C 168.15 283.93 169.45 287.59 167.95 290.94 C 163.69 300.64 159.89 310.56 155.22 320.08 C 147.86 308.47 142.35 295.61 139.75 282.09 C 138.92 276.74 137.51 271.39 137.99 265.93 Z" />
<path fill="#01a44b" opacity="1.00" d=" M 345.94 277.83 C 354.51 274.71 362.61 270.49 370.64 266.20 C 370.72 282.50 365.33 298.44 357.81 312.75 C 356.17 315.73 354.67 318.90 351.96 321.08 C 348.07 312.27 344.27 303.43 340.45 294.59 C 338.38 290.28 339.92 285.39 341.22 281.11 C 341.75 278.99 344.27 278.69 345.94 277.83 Z" />
<path fill="#01a44b" opacity="1.00" d=" M 107.89 269.94 C 110.85 267.08 115.66 268.03 118.65 270.37 C 118.22 272.26 118.95 274.84 117.05 276.06 C 114.95 277.88 112.01 277.37 109.46 277.52 C 108.45 276.49 107.43 275.48 106.40 274.48 C 106.69 272.91 106.46 271.00 107.89 269.94 Z" />
<path fill="#01a44b" opacity="1.00" d=" M 248.99 282.34 C 249.82 280.62 250.68 278.92 251.64 277.27 C 251.04 278.66 250.44 280.04 249.85 281.43 C 252.53 281.51 255.21 281.58 257.90 281.63 C 257.62 281.03 257.05 279.84 256.77 279.24 C 257.29 280.15 257.81 281.07 258.34 281.99 C 257.80 284.06 257.25 286.13 256.52 288.14 L 256.76 286.76 C 256.89 286.22 257.14 285.13 257.26 284.59 C 256.50 285.13 255.75 285.69 255.01 286.26 C 253.51 286.33 252.02 286.40 250.53 286.49 C 251.47 287.64 252.42 288.78 253.38 289.93 C 253.35 300.54 253.24 311.14 253.34 321.74 C 252.80 322.43 252.27 323.12 251.75 323.83 L 251.57 324.76 C 251.56 325.74 251.53 327.68 251.52 328.66 C 251.21 328.85 250.59 329.25 250.29 329.44 C 250.17 325.73 250.26 322.03 250.11 318.33 C 249.21 318.36 247.40 318.43 246.50 318.46 C 246.21 317.71 245.92 316.96 245.64 316.22 C 246.17 314.59 246.70 312.97 247.29 311.36 C 248.25 312.88 248.04 315.07 246.34 316.10 C 247.71 316.83 249.03 317.66 250.42 318.37 C 251.06 319.65 251.68 320.95 252.28 322.26 C 252.94 317.51 252.46 312.74 252.14 308.00 C 252.64 302.02 252.78 296.02 252.46 290.03 C 251.62 288.52 250.74 287.05 249.81 285.60 C 251.30 285.58 252.79 285.57 254.29 285.56 C 255.06 284.66 255.85 283.79 256.65 282.93 C 254.15 282.25 251.56 282.18 248.99 282.34 Z" />
<path fill="#01a44b" opacity="1.00" d=" M 334.98 281.70 C 335.70 281.57 337.14 281.31 337.87 281.17 C 337.73 282.59 337.60 284.00 337.45 285.41 C 336.50 284.26 335.66 283.03 334.98 281.70 Z" />
<path fill="#01a44b" opacity="1.00" d=" M 112.28 292.45 C 113.40 292.47 114.52 292.50 115.65 292.53 C 115.98 294.46 116.36 296.38 116.74 298.30 C 115.34 298.39 113.93 298.48 112.53 298.58 C 112.44 296.53 112.36 294.49 112.28 292.45 Z" />
<path fill="#01a44b" opacity="1.00" d=" M 148.07 376.54 C 150.41 375.29 152.95 375.68 155.25 376.80 C 154.01 378.74 152.09 379.69 149.85 379.88 C 149.40 379.04 148.51 377.37 148.07 376.54 Z" />
<path fill="#01a44b" opacity="1.00" d=" M 163.49 376.52 C 165.28 374.95 168.43 375.21 169.64 377.34 C 171.35 380.13 170.08 384.15 167.11 385.49 C 162.59 385.85 160.89 379.37 163.49 376.52 Z" />
<path fill="#01a44b" opacity="1.00" d=" M 192.40 384.65 C 192.34 381.60 192.10 378.51 192.71 375.50 C 194.37 375.76 196.03 376.07 197.69 376.31 C 198.46 379.03 198.56 381.86 197.57 384.55 C 195.84 384.57 194.12 384.61 192.40 384.65 Z" />
<path fill="#01a44b" opacity="1.00" d=" M 218.78 376.56 C 220.60 376.21 223.01 374.52 224.43 376.51 C 225.32 377.61 226.02 378.83 226.79 380.01 C 225.82 382.50 224.14 384.57 221.99 386.14 C 220.22 384.78 218.68 383.17 217.46 381.31 C 217.91 379.72 218.35 378.15 218.78 376.56 Z" />
<path fill="#01a44b" opacity="1.00" d=" M 290.44 376.85 C 291.22 378.37 292.05 379.88 292.92 381.37 C 291.63 381.49 290.34 381.62 289.06 381.75 C 289.51 380.11 289.97 378.48 290.44 376.85 Z" />
<path fill="#01a44b" opacity="1.00" d=" M 331.11 381.44 C 331.94 379.93 332.75 378.42 333.51 376.88 C 333.97 378.48 334.44 380.08 334.91 381.69 C 333.64 381.60 332.37 381.51 331.11 381.44 Z" />
<path fill="#01a44b" opacity="1.00" d=" M 219.85 397.12 C 222.36 397.25 225.72 397.28 225.92 400.55 C 223.83 400.64 221.73 400.70 219.65 400.37 C 219.70 399.56 219.80 397.94 219.85 397.12 Z" />
<path fill="#01a44b" opacity="1.00" d=" M 276.46 397.40 C 278.18 397.41 279.90 397.43 281.62 397.46 C 281.63 398.55 281.63 399.64 281.64 400.74 C 279.87 400.70 278.11 400.95 276.38 401.27 C 276.40 399.97 276.43 398.68 276.46 397.40 Z" />
<path fill="#01a44b" opacity="1.00" d=" M 235.07 403.56 C 235.55 401.97 235.02 399.52 237.11 399.03 C 237.29 400.56 237.75 402.05 237.90 403.60 C 237.20 403.59 235.78 403.57 235.07 403.56 Z" />
<path fill="#01a44b" opacity="1.00" d=" M 264.23 399.04 C 265.84 399.88 266.18 401.75 266.80 403.30 C 265.58 403.40 264.36 403.51 263.13 403.62 C 263.46 402.08 263.78 400.54 264.23 399.04 Z" />
<path fill="#01a44b" opacity="1.00" d=" M 302.65 399.71 C 303.09 399.60 303.96 399.38 304.40 399.27 C 304.82 400.66 305.26 402.06 305.69 403.46 C 304.59 403.48 303.49 403.50 302.40 403.52 C 302.48 402.24 302.56 400.97 302.65 399.71 Z" />
</g>
<g id="#24211cff">
<path fill="#24211c" opacity="1.00" d=" M 316.95 63.40 L 317.71 62.89 L 318.70 63.30 L 318.90 64.19 C 318.41 63.99 317.44 63.59 316.95 63.40 Z" />
<path fill="#24211c" opacity="1.00" d=" M 236.23 109.45 C 241.05 108.48 245.98 108.31 250.89 108.47 C 251.47 112.02 247.91 111.95 245.48 112.63 C 245.48 117.30 246.11 121.95 246.10 126.63 C 244.85 126.63 243.61 126.63 242.37 126.64 C 241.64 122.01 241.48 117.32 241.41 112.65 C 239.72 112.60 238.04 112.55 236.36 112.51 C 236.33 111.74 236.26 110.21 236.23 109.45 Z" />
<path fill="#24211c" opacity="1.00" d=" M 257.54 126.53 C 256.91 120.44 258.01 114.37 258.71 108.34 C 262.81 108.53 267.03 108.58 270.91 110.08 C 272.37 111.27 273.56 113.11 273.48 115.06 C 272.49 116.72 271.12 118.17 270.37 119.96 C 271.13 122.71 272.84 125.09 273.98 127.69 C 272.30 127.20 269.81 128.07 268.82 126.16 C 266.81 123.54 265.87 119.08 261.79 119.29 C 261.52 122.19 262.08 127.51 257.54 126.53 M 262.37 112.40 C 262.46 113.71 262.55 115.01 262.64 116.32 C 264.55 116.33 266.47 116.34 268.40 116.36 C 268.44 115.11 268.43 113.87 268.48 112.63 C 266.44 112.55 264.41 112.48 262.37 112.40 Z" />
<path fill="#24211c" opacity="1.00" d=" M 225.75 120.93 C 226.00 117.11 223.09 112.21 227.21 109.66 C 230.23 114.56 229.92 120.56 231.25 126.01 C 232.17 128.50 228.65 129.56 227.16 127.96 C 224.30 125.63 221.91 122.81 219.30 120.23 C 218.99 123.67 221.62 127.83 219.22 130.69 C 218.64 130.57 217.47 130.34 216.88 130.22 C 215.62 126.29 215.29 122.15 214.37 118.14 C 214.18 116.25 212.98 113.95 214.85 112.53 C 217.08 111.78 218.54 113.72 219.97 115.07 C 221.89 117.03 223.77 119.02 225.75 120.93 Z" />
<path fill="#24211c" opacity="1.00" d=" M 282.89 111.43 C 287.46 112.25 292.25 112.69 296.45 114.84 L 296.49 116.03 C 296.21 116.43 295.64 117.24 295.36 117.64 C 292.12 117.05 288.88 116.40 285.58 116.29 C 285.52 116.85 285.42 117.99 285.37 118.55 C 288.10 119.45 290.86 120.24 293.68 120.84 C 293.63 122.06 293.37 123.26 293.28 124.48 C 290.41 124.05 287.62 123.26 284.84 122.46 C 284.42 123.21 283.57 124.72 283.15 125.48 C 286.21 126.65 289.39 127.49 292.45 128.67 C 292.57 129.46 292.83 131.04 292.95 131.84 C 287.99 131.24 283.14 129.98 278.40 128.40 C 280.09 122.79 281.46 117.10 282.89 111.43 Z" />
<path fill="#24211c" opacity="1.00" d=" M 298.73 132.12 C 301.00 127.09 302.80 121.76 305.83 117.12 C 306.48 117.46 307.76 118.15 308.41 118.49 C 309.94 122.47 310.14 126.80 311.10 130.93 C 312.59 128.06 314.09 125.19 315.22 122.15 C 316.49 122.30 317.75 122.45 319.03 122.61 C 317.08 127.64 315.07 132.68 312.67 137.52 C 312.13 139.19 310.00 138.96 308.86 138.12 C 307.45 134.47 307.06 130.53 306.13 126.75 C 304.23 129.24 302.91 132.09 301.33 134.77 C 298.93 135.05 298.06 134.17 298.73 132.12 Z" />
<path fill="#24211c" opacity="1.00" d=" M 195.57 121.99 C 195.39 120.22 196.90 119.06 197.81 117.77 C 202.45 122.08 207.03 126.47 211.39 131.06 C 211.44 131.65 211.53 132.83 211.57 133.42 C 208.74 134.24 206.94 131.75 204.79 130.45 C 202.90 130.42 201.34 131.72 199.70 132.49 C 199.50 134.68 200.24 137.39 198.02 138.77 C 197.48 138.34 196.40 137.47 195.86 137.04 C 195.33 132.05 195.52 127.00 195.57 121.99 Z" />
<path fill="#24211c" opacity="1.00" d=" M 172.66 133.08 C 174.33 127.32 182.53 125.23 186.41 130.08 C 184.36 132.96 181.03 131.64 178.19 131.20 C 177.54 132.27 177.06 133.44 176.31 134.45 C 179.96 134.59 183.50 133.03 187.15 133.51 C 191.48 135.05 191.59 141.46 187.68 143.57 C 184.30 146.60 179.61 145.95 176.11 143.55 C 176.67 142.08 177.24 140.62 177.81 139.16 C 175.07 138.48 172.03 136.24 172.66 133.08 M 178.69 138.77 C 179.41 140.62 180.86 142.24 183.06 141.61 C 185.57 141.80 186.28 139.15 186.95 137.30 C 184.16 137.53 181.39 138.03 178.69 138.77 Z" />
<path fill="#24211c" opacity="1.00" d=" M 333.08 131.91 C 334.67 130.04 336.43 132.73 337.72 133.61 C 336.41 137.33 335.35 141.12 334.43 144.95 C 337.87 143.20 340.76 140.61 344.05 138.63 C 346.19 137.43 348.84 139.99 347.21 142.01 C 344.56 146.09 341.90 150.20 338.90 154.03 C 338.16 155.20 336.56 154.51 335.55 154.25 C 335.22 151.26 337.72 148.94 339.02 146.45 C 337.15 147.79 335.33 149.22 333.30 150.31 C 331.93 151.05 329.79 151.10 329.50 149.17 C 329.84 146.42 330.70 143.78 331.46 141.13 C 329.75 143.45 328.02 145.79 325.97 147.83 C 324.49 147.03 323.55 145.20 324.71 143.72 C 327.29 139.66 329.93 135.56 333.08 131.91 Z" />
<path fill="#24211c" opacity="1.00" d=" M 159.22 140.21 C 160.82 138.73 162.91 138.22 165.02 138.05 C 164.74 142.03 160.70 143.69 158.10 146.05 C 158.81 146.88 159.52 147.72 160.23 148.55 C 162.48 146.53 164.83 144.64 167.26 142.84 C 167.86 144.00 168.45 145.17 168.98 146.37 C 166.45 148.37 162.69 150.00 163.21 153.87 C 167.22 153.56 169.88 150.27 173.00 148.15 C 173.47 148.90 174.41 150.40 174.88 151.15 C 171.65 153.77 168.69 156.86 164.94 158.75 C 162.77 159.11 161.73 156.78 160.44 155.50 C 158.09 152.25 154.90 149.59 153.08 145.99 C 154.29 143.38 157.12 142.02 159.22 140.21 Z" />
<path fill="#24211c" opacity="1.00" d=" M 246.88 144.27 C 251.38 143.69 255.93 143.52 260.43 144.18 C 282.16 145.22 303.60 152.20 321.71 164.26 C 341.20 177.10 356.79 195.85 365.50 217.54 C 379.04 250.11 375.85 289.14 357.01 318.99 C 355.30 321.40 354.17 324.17 354.28 327.18 C 351.35 330.59 348.58 334.14 345.58 337.49 C 336.22 339.33 326.81 337.18 317.39 337.48 C 308.98 336.58 300.44 335.87 292.09 337.76 C 295.59 340.76 299.11 343.79 301.97 347.44 C 295.77 353.19 289.61 359.00 283.16 364.44 C 281.01 365.56 279.38 363.29 277.97 362.06 C 272.96 356.83 267.47 352.05 262.80 346.51 C 259.56 346.23 256.91 348.23 254.04 349.36 C 250.99 349.07 248.33 347.23 245.50 346.17 C 239.55 351.32 234.15 357.05 228.58 362.59 C 227.44 363.55 226.25 365.17 224.54 364.68 C 222.82 363.74 221.44 362.34 220.03 361.02 C 215.28 356.23 209.73 352.29 205.32 347.15 C 208.50 344.04 211.81 341.07 214.93 337.91 C 205.55 335.09 195.58 336.99 186.00 337.55 C 177.71 337.42 169.42 339.20 161.18 337.46 C 158.44 333.79 155.01 330.66 152.50 326.84 C 152.74 325.36 153.61 323.97 153.48 322.46 C 151.83 318.65 149.26 315.34 147.43 311.63 C 140.42 297.77 135.94 282.52 135.19 266.97 C 133.80 259.65 135.38 252.32 135.93 245.01 C 139.01 221.03 150.25 198.37 166.94 180.94 C 187.72 159.24 216.90 145.95 246.88 144.27 M 262.94 147.40 C 277.81 154.68 292.28 163.26 304.25 174.83 C 305.73 176.18 307.13 177.69 308.95 178.61 C 313.35 178.27 317.30 175.97 321.34 174.38 C 322.97 173.47 325.27 172.99 325.93 171.03 C 325.25 169.48 323.74 168.57 322.42 167.63 C 315.21 162.89 307.72 158.46 299.60 155.43 C 287.92 150.91 275.58 147.17 262.94 147.40 M 182.17 171.10 C 187.70 174.70 193.69 178.48 200.47 178.77 C 211.78 166.80 225.69 157.54 240.32 150.12 C 241.55 149.48 242.52 148.56 243.25 147.35 C 240.14 147.40 237.03 147.70 233.97 148.28 C 215.26 151.55 196.93 159.00 182.17 171.10 M 259.49 150.84 C 259.26 162.80 259.44 174.76 259.36 186.71 C 268.62 186.94 277.83 185.87 286.94 184.30 C 286.23 179.99 283.24 176.67 280.89 173.17 C 274.83 164.82 268.02 156.75 259.49 150.84 M 224.30 162.27 C 216.62 167.67 208.62 173.08 202.78 180.54 C 207.68 181.72 212.55 183.94 217.67 183.57 C 219.23 182.49 219.89 180.51 220.94 178.98 C 226.69 168.81 234.69 160.18 242.93 152.00 C 236.30 154.60 230.23 158.37 224.30 162.27 M 247.53 151.88 C 236.85 161.07 226.94 171.79 220.93 184.65 C 229.69 186.17 238.58 187.04 247.46 187.51 C 248.92 182.11 248.17 176.50 248.30 170.99 C 248.16 164.62 248.86 158.17 247.53 151.88 M 266.01 151.95 C 272.89 159.51 280.22 166.77 285.59 175.54 C 287.42 178.16 288.64 181.39 291.12 183.46 C 295.84 182.78 300.65 181.88 305.00 179.86 C 304.59 178.75 303.94 177.75 303.07 176.95 C 292.08 166.81 279.57 158.29 266.01 151.95 M 178.83 173.15 C 169.40 181.36 160.88 190.69 154.19 201.28 C 153.74 202.09 153.02 203.18 153.91 203.99 C 157.84 208.77 162.70 212.72 167.72 216.32 C 169.44 217.63 171.48 218.38 173.51 219.09 C 177.33 210.99 181.11 202.78 186.46 195.55 C 189.69 190.60 193.81 186.34 197.11 181.44 C 190.73 179.28 185.18 175.29 178.83 173.15 M 327.98 173.81 C 322.43 176.33 317.04 179.25 311.16 180.98 C 317.20 189.01 323.89 196.63 328.58 205.59 C 331.56 210.39 333.18 215.89 336.14 220.69 C 343.30 217.14 349.72 211.90 354.85 205.79 C 356.54 204.00 354.83 201.80 353.83 200.17 C 347.87 191.06 340.56 182.87 332.51 175.56 C 331.23 174.60 329.75 172.79 327.98 173.81 M 200.25 182.40 C 195.38 187.87 190.57 193.44 186.68 199.67 C 182.51 206.57 177.90 213.52 176.05 221.47 C 182.27 224.60 188.69 227.33 195.28 229.57 C 197.50 230.38 199.87 230.52 202.21 230.66 C 203.46 220.25 206.72 210.19 210.34 200.40 C 212.13 195.69 214.57 191.25 216.09 186.44 C 210.75 185.31 205.46 184.00 200.25 182.40 M 292.23 185.91 C 293.78 190.76 296.49 195.10 298.23 199.87 C 300.92 207.14 303.34 214.53 304.91 222.13 C 305.63 225.34 306.01 228.64 307.16 231.74 C 316.23 231.20 324.34 226.35 332.72 223.24 C 332.98 218.59 330.31 214.67 328.38 210.67 C 323.27 200.23 316.11 190.98 308.56 182.21 C 303.04 183.13 297.74 184.99 292.23 185.91 M 218.89 187.42 C 213.23 199.10 208.44 211.29 205.98 224.08 C 205.51 226.60 204.93 229.09 204.31 231.58 C 206.52 232.46 208.75 233.34 211.09 233.81 C 221.94 236.12 232.93 237.87 244.02 238.42 C 253.33 238.55 262.66 238.70 271.97 238.32 C 282.69 237.69 293.25 235.64 303.74 233.42 C 303.66 230.90 303.67 228.37 303.15 225.90 C 301.27 217.20 298.93 208.58 295.56 200.33 C 293.54 195.56 291.88 190.52 288.57 186.45 C 279.06 188.44 269.31 189.48 259.60 189.61 C 259.54 190.56 259.49 191.52 259.44 192.47 C 264.12 192.59 268.81 192.61 273.49 192.52 C 273.73 195.83 273.71 199.16 273.49 202.48 C 270.18 202.43 266.87 202.43 263.56 202.47 C 263.56 204.46 263.55 206.46 263.55 208.45 C 266.89 208.46 270.24 208.47 273.58 208.48 C 273.70 212.51 273.71 216.54 273.62 220.58 C 270.31 220.59 267.00 220.61 263.69 220.63 C 263.59 222.28 263.50 223.92 263.40 225.57 C 266.83 226.07 270.28 226.36 273.74 226.41 C 273.72 229.76 273.65 233.11 273.49 236.45 C 265.10 236.10 256.72 236.95 248.34 236.40 C 247.93 229.92 247.63 223.44 248.27 216.96 C 248.05 207.82 248.88 198.62 247.72 189.52 C 238.04 190.14 228.51 188.02 218.89 187.42 M 151.53 205.94 C 142.40 222.40 137.43 241.19 137.50 260.02 C 137.11 262.74 139.99 263.84 141.78 265.17 C 149.66 269.86 157.80 274.39 166.65 276.95 C 164.85 262.65 165.07 247.96 168.87 233.98 C 169.73 230.05 171.45 226.29 171.77 222.25 C 169.20 219.71 165.84 218.16 163.01 215.92 C 158.80 213.04 155.43 209.18 151.53 205.94 M 344.43 218.58 C 342.11 220.20 339.58 221.52 337.46 223.40 C 337.49 227.73 339.55 231.74 340.33 235.97 C 343.82 249.26 342.45 263.10 342.42 276.67 C 351.13 273.24 359.76 269.52 367.86 264.79 C 369.26 263.88 370.94 262.92 371.35 261.17 C 371.25 242.40 366.92 223.53 357.78 207.03 C 353.21 210.75 349.36 215.32 344.43 218.58 M 173.33 227.12 C 170.74 236.21 168.50 245.51 168.36 255.00 C 168.46 262.91 167.91 270.91 169.76 278.67 C 170.90 278.55 172.04 278.47 173.18 278.36 C 176.87 272.03 178.32 264.60 182.46 258.49 C 188.04 259.92 193.83 260.79 199.60 260.12 C 199.40 251.68 200.48 243.27 201.29 234.88 C 198.92 232.39 195.08 232.33 192.04 231.02 C 186.13 229.28 180.84 225.98 175.00 224.10 C 173.98 224.77 173.71 226.05 173.33 227.12 M 332.75 225.74 C 324.61 229.79 315.97 232.58 307.32 235.28 C 308.99 243.51 308.46 252.17 309.95 260.30 C 314.85 260.68 319.73 259.64 324.46 258.48 C 328.65 264.58 330.07 272.04 333.84 278.35 C 335.71 279.15 337.56 277.90 339.34 277.40 C 341.59 260.81 340.77 243.63 335.33 227.71 C 334.75 226.68 334.23 224.50 332.75 225.74 M 203.93 235.13 C 202.84 243.30 202.13 251.51 202.34 259.76 C 209.23 259.86 216.06 257.65 222.93 259.05 C 230.15 259.93 236.63 263.35 243.35 265.86 C 243.86 261.08 244.30 256.26 245.60 251.61 C 251.19 251.84 256.88 251.03 262.36 252.50 C 262.69 256.94 263.36 261.35 263.82 265.78 C 273.01 261.85 282.72 257.65 292.97 258.81 C 297.48 259.51 302.04 259.82 306.61 259.73 C 306.45 251.84 306.02 243.92 304.77 236.13 C 294.50 237.60 284.35 240.10 273.94 240.49 C 269.76 240.62 265.62 241.26 261.47 241.70 C 261.47 244.49 261.47 247.28 261.50 250.08 C 256.53 250.53 251.53 250.42 246.54 250.44 C 246.35 247.41 246.52 244.29 245.50 241.40 C 243.56 240.24 241.19 240.65 239.05 240.45 C 227.14 240.14 215.62 236.97 203.93 235.13 M 182.99 261.44 C 182.65 262.60 182.29 263.75 181.89 264.89 C 180.96 266.93 180.05 268.97 179.24 271.06 C 179.02 271.59 178.58 272.64 178.36 273.17 C 177.60 274.79 176.87 276.43 176.18 278.09 C 174.83 281.14 173.42 284.17 172.22 287.28 C 169.55 293.53 166.79 299.75 164.20 306.04 C 163.20 308.39 162.18 310.74 161.16 313.08 C 160.02 315.66 158.92 318.26 157.67 320.80 C 157.03 322.56 156.51 324.37 156.16 326.22 C 164.75 326.25 173.43 327.06 181.97 325.83 C 184.96 325.55 187.99 325.46 190.93 324.79 C 196.60 324.12 202.29 323.56 207.95 322.79 C 210.32 322.72 212.70 322.71 215.08 322.77 C 220.79 323.50 226.53 324.20 231.98 326.21 C 233.37 326.73 234.76 327.22 236.16 327.72 C 238.06 328.64 240.03 329.41 241.94 330.34 C 245.70 332.13 249.37 334.11 252.89 336.34 C 253.19 336.33 253.79 336.31 254.09 336.30 C 257.27 334.26 260.63 332.54 263.97 330.78 C 267.63 329.11 271.30 327.45 275.11 326.15 C 283.39 323.52 292.28 321.93 300.94 323.18 C 303.95 323.40 306.99 323.53 309.94 324.20 C 312.63 324.41 315.33 324.57 317.96 325.23 C 320.96 325.47 323.98 325.60 326.94 326.24 C 334.96 326.29 343.12 327.16 351.03 325.54 C 349.47 321.32 347.66 317.21 345.81 313.12 C 344.83 310.77 343.79 308.45 342.77 306.13 C 341.85 303.76 340.84 301.43 339.83 299.10 C 338.80 296.77 337.77 294.45 336.73 292.14 C 335.90 290.05 335.03 287.97 334.21 285.89 C 333.15 283.58 332.19 281.23 331.17 278.92 C 328.68 273.12 325.95 267.42 323.91 261.45 C 320.25 261.68 316.68 262.71 313.01 262.62 C 301.26 263.17 289.35 259.26 277.77 262.77 C 274.84 263.80 271.94 264.92 269.15 266.31 C 267.61 266.92 266.09 267.56 264.54 268.14 C 264.63 272.42 265.53 276.64 265.99 280.90 C 266.56 283.86 266.61 286.90 266.84 289.90 C 268.58 290.41 269.83 291.65 270.94 293.05 C 269.50 293.94 268.00 294.74 266.63 295.73 C 264.86 298.53 264.06 301.80 262.85 304.85 C 262.16 306.57 261.46 308.29 260.72 309.99 C 259.47 312.18 259.40 314.59 260.58 316.82 C 260.07 317.17 259.04 317.87 258.53 318.22 C 258.13 318.38 257.32 318.71 256.92 318.87 C 256.65 319.81 256.12 321.69 255.86 322.63 C 255.66 321.96 255.28 320.62 255.08 319.95 C 254.45 309.91 255.46 299.79 254.53 289.77 C 255.26 288.76 256.01 287.75 256.76 286.76 L 256.52 288.14 C 257.25 286.13 257.80 284.06 258.34 281.99 C 257.81 281.07 257.29 280.15 256.77 279.24 C 256.58 278.84 256.22 278.04 256.03 277.65 C 254.57 277.50 253.10 277.38 251.64 277.27 C 250.68 278.92 249.82 280.62 248.99 282.34 C 251.56 282.18 254.15 282.25 256.65 282.93 C 255.85 283.79 255.06 284.66 254.29 285.56 C 252.79 285.57 251.30 285.58 249.81 285.60 C 250.74 287.05 251.62 288.52 252.46 290.03 C 252.78 296.02 252.64 302.02 252.14 308.00 C 252.46 312.74 252.94 317.51 252.28 322.26 C 251.68 320.95 251.06 319.65 250.42 318.37 C 249.03 317.66 247.71 316.83 246.34 316.10 C 248.04 315.07 248.25 312.88 247.29 311.36 C 245.52 307.22 244.09 302.94 242.24 298.83 C 242.06 297.40 241.92 295.98 241.77 294.56 C 240.31 294.49 235.24 294.19 237.89 291.95 C 238.82 291.60 239.74 291.20 240.63 290.75 C 241.43 286.51 240.98 282.11 242.06 277.92 C 242.91 274.96 242.99 271.88 243.21 268.84 C 234.32 264.31 224.48 259.49 214.26 261.31 L 214.31 261.64 C 212.19 261.42 210.05 261.52 207.95 261.82 C 201.38 262.91 194.65 262.84 188.04 262.18 C 186.39 261.75 184.69 261.57 182.99 261.44 M 137.99 265.93 C 137.51 271.39 138.92 276.74 139.75 282.09 C 142.35 295.61 147.86 308.47 155.22 320.08 C 159.89 310.56 163.69 300.64 167.95 290.94 C 169.45 287.59 168.15 283.93 167.43 280.56 C 162.01 277.98 156.31 276.01 150.99 273.19 C 146.54 270.99 142.36 268.27 137.99 265.93 M 345.94 277.83 C 344.27 278.69 341.75 278.99 341.22 281.11 C 339.92 285.39 338.38 290.28 340.45 294.59 C 344.27 303.43 348.07 312.27 351.96 321.08 C 354.67 318.90 356.17 315.73 357.81 312.75 C 365.33 298.44 370.72 282.50 370.64 266.20 C 362.61 270.49 354.51 274.71 345.94 277.83 M 334.98 281.70 C 335.66 283.03 336.50 284.26 337.45 285.41 C 337.60 284.00 337.73 282.59 337.87 281.17 C 337.14 281.31 335.70 281.57 334.98 281.70 M 193.04 327.21 C 190.36 327.48 187.64 327.51 185.03 328.24 C 176.00 328.97 166.93 328.65 157.89 328.60 C 159.75 330.82 160.92 334.45 164.19 334.89 C 171.42 336.25 178.71 334.43 185.98 334.55 C 197.28 334.36 208.73 333.44 219.94 335.18 C 221.31 335.40 222.69 335.58 224.07 335.78 C 229.53 337.13 234.89 338.84 240.17 340.77 C 241.82 341.43 243.47 342.09 245.14 342.73 C 248.02 344.06 250.90 345.43 253.83 346.68 C 256.80 344.93 259.92 343.46 263.12 342.17 C 264.80 341.51 266.48 340.86 268.17 340.23 C 269.43 339.76 270.69 339.31 271.96 338.86 C 272.97 338.55 273.98 338.22 274.99 337.89 C 277.61 337.12 280.25 336.43 282.91 335.80 C 284.62 335.53 286.32 335.22 287.99 334.76 C 299.28 333.83 310.61 334.22 321.92 334.57 C 324.61 334.62 327.33 334.66 329.99 335.21 C 333.70 335.37 337.42 335.29 341.14 335.37 C 345.09 335.14 347.00 331.63 348.67 328.58 C 339.45 328.49 330.09 329.38 320.96 327.86 C 308.00 326.74 294.85 323.60 281.92 326.78 C 280.58 327.13 279.25 327.52 277.91 327.83 C 276.66 328.31 275.38 328.75 274.14 329.23 C 268.91 331.06 263.95 333.53 259.12 336.21 C 257.46 337.20 255.84 338.23 254.23 339.31 C 253.89 339.32 253.20 339.34 252.85 339.36 C 249.71 337.27 246.41 335.44 243.09 333.66 C 239.71 332.07 236.33 330.47 232.81 329.21 C 231.52 328.76 230.24 328.33 228.96 327.87 C 227.66 327.52 226.36 327.20 225.08 326.82 C 214.54 324.31 203.60 325.54 193.04 327.21 Z" />
<path fill="#24211c" opacity="1.00" d=" M 341.91 157.78 C 347.73 155.43 353.40 152.75 359.19 150.31 C 360.08 151.14 360.98 151.98 361.87 152.82 C 359.24 158.66 356.82 164.60 354.01 170.36 C 353.12 169.66 352.28 168.91 351.49 168.11 C 351.73 166.21 352.26 164.36 352.43 162.45 C 351.39 161.19 350.12 159.09 348.21 159.72 C 346.64 159.97 345.12 160.48 343.54 160.52 C 342.63 159.88 342.39 158.71 341.91 157.78 Z" />
<path fill="#24211c" opacity="1.00" d=" M 143.63 154.69 C 146.94 151.62 152.63 154.72 152.66 158.96 C 152.96 162.14 149.91 164.05 148.51 166.56 C 149.62 168.07 150.85 169.49 151.94 171.03 C 151.42 172.08 150.89 173.12 150.35 174.16 C 145.90 170.19 141.32 166.30 137.28 161.91 C 138.12 158.72 141.29 156.79 143.63 154.69 M 143.65 159.65 C 142.50 161.20 144.10 162.84 144.79 164.15 C 146.34 162.47 149.07 161.10 148.64 158.40 C 147.09 156.59 144.81 158.24 143.65 159.65 Z" />
<path fill="#24211c" opacity="1.00" d=" M 362.69 169.70 C 365.83 167.52 368.65 164.50 372.64 163.97 C 372.66 165.15 372.69 166.33 372.71 167.51 C 371.49 168.22 370.27 168.92 369.05 169.62 C 369.37 172.00 370.69 173.98 372.27 175.71 C 373.84 174.71 375.40 173.68 377.06 172.82 C 378.56 170.91 381.01 175.03 379.00 175.83 C 374.81 179.35 370.13 182.22 365.80 185.55 C 364.86 184.69 363.93 183.83 363.00 182.96 C 364.86 181.49 366.84 180.15 368.53 178.46 C 368.74 176.34 366.96 174.72 365.53 173.44 C 362.63 174.05 360.37 176.46 357.35 176.92 C 356.43 173.11 360.25 171.61 362.69 169.70 Z" />
<path fill="#24211c" opacity="1.00" d=" M 126.35 174.40 C 126.94 174.37 128.12 174.31 128.71 174.28 C 129.26 177.06 129.78 179.85 130.32 182.64 C 134.55 182.60 138.79 182.46 143.02 182.33 C 142.48 183.72 141.94 185.12 141.41 186.52 C 138.40 186.51 135.38 186.54 132.37 186.57 C 132.40 187.54 132.43 188.51 132.46 189.48 C 134.09 190.81 137.05 191.64 136.73 194.25 C 135.22 195.02 133.47 194.86 132.07 193.95 C 127.78 191.51 123.55 188.96 119.51 186.12 C 120.37 185.17 121.09 182.70 122.83 183.90 C 124.44 184.46 126.00 185.18 127.56 185.88 C 126.44 182.16 124.93 178.26 126.35 174.40 Z" />
<path fill="#24211c" opacity="1.00" d=" M 367.93 189.52 C 374.69 188.25 381.58 188.32 388.43 188.24 C 388.52 189.29 388.60 190.34 388.70 191.40 C 384.38 196.01 380.30 200.84 375.71 205.18 C 375.23 203.79 374.66 202.46 374.18 201.08 C 376.02 199.48 377.56 197.13 376.24 194.68 C 375.21 191.65 371.47 193.01 369.09 192.27 C 368.66 191.37 368.28 190.45 367.93 189.52 Z" />
<path fill="#24211c" opacity="1.00" d=" M 117.20 196.97 C 122.92 195.17 130.98 199.36 130.59 206.00 C 130.51 210.85 125.89 215.05 121.03 214.46 C 117.20 213.97 113.24 211.77 111.71 208.07 C 110.41 203.64 112.98 198.70 117.20 196.97 M 115.50 202.35 C 115.49 204.10 115.48 205.86 115.46 207.63 C 117.99 209.71 121.03 210.87 124.34 210.53 C 125.04 209.79 125.75 209.06 126.46 208.33 C 126.49 206.68 126.52 205.03 126.55 203.39 C 124.72 202.34 122.99 200.96 120.90 200.51 C 118.88 200.13 117.20 201.52 115.50 202.35 Z" />
<path fill="#24211c" opacity="1.00" d=" M 389.35 205.33 C 391.82 203.45 394.88 205.46 396.34 207.63 C 397.89 209.85 397.46 212.70 397.74 215.25 C 396.25 216.38 394.81 218.19 392.70 217.49 C 391.98 214.91 393.66 212.25 393.77 209.61 C 392.66 209.49 391.55 209.38 390.45 209.26 C 390.57 213.15 391.19 217.44 388.40 220.61 C 386.46 220.62 384.52 220.65 382.59 220.70 C 380.45 218.26 377.97 215.47 378.48 211.94 C 378.41 208.94 381.35 207.43 383.35 205.80 C 385.63 208.35 383.37 210.55 382.48 213.03 C 382.04 215.49 384.44 216.60 386.43 217.00 C 386.89 213.09 384.82 207.41 389.35 205.33 Z" />
<path fill="#24211c" opacity="1.00" d=" M 104.74 233.05 C 103.64 228.11 105.75 221.60 110.93 219.68 C 115.68 218.94 121.23 220.95 123.34 225.51 C 124.20 229.36 122.62 233.18 121.49 236.80 C 115.97 235.24 110.32 234.32 104.74 233.05 M 108.03 229.36 C 111.79 230.61 115.67 231.58 119.66 231.69 C 119.56 229.79 119.64 227.85 119.22 225.99 C 116.98 224.04 113.85 223.22 110.95 223.79 C 109.57 225.40 108.88 227.45 108.03 229.36 Z" />
<path fill="#24211c" opacity="1.00" d=" M 383.31 228.45 C 389.35 227.20 395.38 225.55 401.59 225.41 C 401.56 226.10 401.51 227.48 401.49 228.18 C 395.83 230.50 389.51 231.13 383.44 231.85 C 383.39 230.71 383.35 229.58 383.31 228.45 Z" />
<path fill="#24211c" opacity="1.00" d=" M 396.78 237.56 C 399.72 236.52 402.95 238.33 403.89 241.24 C 405.70 245.01 403.44 250.73 398.84 250.75 C 395.88 248.96 399.25 247.06 400.46 245.37 C 400.43 244.13 400.42 242.90 400.40 241.67 C 399.50 241.61 398.61 241.55 397.72 241.50 C 397.43 243.74 397.47 246.10 396.54 248.21 C 395.53 250.48 393.10 251.47 391.13 252.72 C 389.27 251.27 386.61 250.37 385.82 247.95 C 384.72 244.60 385.05 240.14 388.47 238.25 C 389.46 237.33 392.79 236.63 392.40 238.90 C 393.04 240.76 390.44 241.33 389.48 242.50 C 389.44 244.16 389.43 245.83 389.42 247.50 C 390.40 247.56 391.38 247.62 392.37 247.69 C 393.17 244.16 393.05 239.44 396.78 237.56 Z" />
<path fill="#24211c" opacity="1.00" d=" M 102.72 242.83 C 105.36 241.92 108.22 242.40 110.96 242.39 C 114.84 242.67 119.27 241.90 122.36 244.86 C 118.84 248.45 114.16 250.43 110.07 253.23 C 113.53 253.45 116.99 253.58 120.46 253.68 C 120.47 254.64 120.50 256.55 120.51 257.50 C 114.35 257.49 108.16 257.62 102.07 256.53 C 102.42 254.94 102.34 252.88 104.09 252.09 C 106.88 250.40 109.83 248.91 112.26 246.67 C 108.95 246.27 105.36 246.89 102.32 245.25 C 102.42 244.65 102.62 243.43 102.72 242.83 Z" />
<path fill="#24211c" opacity="1.00" d=" M 388.92 260.72 C 393.71 260.39 398.40 259.35 403.16 258.74 C 404.73 259.31 405.18 260.46 404.50 262.20 C 401.10 263.28 397.52 263.54 394.03 264.17 C 396.73 265.42 399.56 266.40 402.23 267.73 C 404.27 268.25 404.37 271.58 402.35 272.17 C 399.51 273.35 396.38 273.45 393.38 273.81 C 393.52 274.11 393.80 274.69 393.94 274.99 C 397.02 276.22 402.65 275.95 402.80 280.27 C 400.84 281.76 398.56 280.16 396.58 279.59 C 392.67 277.92 388.54 276.80 384.70 274.99 C 384.56 274.42 384.28 273.29 384.14 272.73 C 387.56 270.01 392.27 270.86 396.07 268.99 C 392.78 267.50 389.17 266.72 386.01 264.96 C 383.92 263.04 386.90 260.60 388.92 260.72 Z" />
<path fill="#24211c" opacity="1.00" d=" M 106.86 265.80 C 109.86 263.60 113.80 264.50 117.25 264.35 C 119.69 266.66 122.57 269.24 122.35 272.94 C 122.35 279.67 113.86 283.46 108.24 280.74 C 102.02 278.81 101.34 268.92 106.86 265.80 M 107.89 269.94 C 106.46 271.00 106.69 272.91 106.40 274.48 C 107.43 275.48 108.45 276.49 109.46 277.52 C 112.01 277.37 114.95 277.88 117.05 276.06 C 118.95 274.84 118.22 272.26 118.65 270.37 C 115.66 268.03 110.85 267.08 107.89 269.94 Z" />
<path fill="#24211c" opacity="1.00" d=" M 210.53 271.66 C 211.87 271.60 213.22 271.53 214.57 271.46 C 214.61 272.84 214.65 274.21 214.71 275.59 C 213.30 275.61 211.92 275.65 210.52 275.67 C 210.52 274.33 210.53 273.00 210.53 271.66 Z" />
<path fill="#24211c" opacity="1.00" d=" M 220.94 275.37 C 217.59 276.40 218.03 270.67 220.86 270.63 C 221.59 270.89 223.06 271.40 223.79 271.66 C 223.11 272.98 223.14 275.73 220.94 275.37 Z" />
<path fill="#24211c" opacity="1.00" d=" M 227.38 271.32 C 228.79 271.41 230.21 271.51 231.62 271.61 C 231.52 272.91 231.41 274.21 231.31 275.51 C 229.98 275.51 228.64 275.50 227.31 275.49 C 227.33 274.10 227.35 272.71 227.38 271.32 Z" />
<path fill="#24211c" opacity="1.00" d=" M 194.38 272.17 C 195.79 272.31 197.21 272.46 198.63 272.62 C 198.35 274.03 198.51 277.40 196.07 276.44 C 192.93 277.09 193.59 274.00 194.38 272.17 Z" />
<path fill="#24211c" opacity="1.00" d=" M 275.24 271.51 C 276.28 271.49 278.37 271.45 279.41 271.44 C 279.43 272.42 279.47 274.40 279.49 275.39 C 278.46 275.44 276.41 275.54 275.39 275.58 C 275.35 274.57 275.28 272.53 275.24 271.51 Z" />
<path fill="#24211c" opacity="1.00" d=" M 284.45 272.09 C 287.30 269.21 287.42 276.76 284.48 273.95 C 284.47 273.48 284.46 272.56 284.45 272.09 Z" />
<path fill="#24211c" opacity="1.00" d=" M 291.33 275.50 C 291.11 272.73 292.62 270.66 295.58 271.40 C 295.68 272.80 295.79 274.21 295.89 275.62 C 294.36 275.59 292.85 275.55 291.33 275.50 Z" />
<path fill="#24211c" opacity="1.00" d=" M 300.35 272.39 C 301.71 272.48 303.08 272.57 304.46 272.67 C 304.43 273.94 304.40 275.22 304.38 276.50 C 303.36 276.52 301.32 276.56 300.29 276.58 C 300.30 275.18 300.33 273.78 300.35 272.39 Z" />
<path fill="#24211c" opacity="1.00" d=" M 202.41 272.56 C 203.42 272.54 205.44 272.51 206.45 272.49 C 206.48 273.49 206.53 275.48 206.55 276.48 C 205.52 276.50 203.44 276.56 202.41 276.58 C 202.41 275.58 202.41 273.57 202.41 272.56 Z" />
<path fill="#24211c" opacity="1.00" d=" M 267.26 273.57 C 268.57 273.52 269.88 273.49 271.19 273.47 C 271.31 274.77 271.43 276.07 271.55 277.37 C 270.15 277.49 268.76 277.61 267.38 277.71 C 267.35 276.68 267.29 274.61 267.26 273.57 Z" />
<path fill="#24211c" opacity="1.00" d=" M 308.38 272.44 C 309.42 272.41 311.49 272.35 312.53 272.31 C 312.54 273.31 312.55 275.32 312.56 276.32 C 311.55 276.37 309.53 276.46 308.51 276.51 C 308.48 275.49 308.41 273.46 308.38 272.44 Z" />
<path fill="#24211c" opacity="1.00" d=" M 235.55 273.39 C 236.56 273.46 238.58 273.61 239.60 273.68 C 239.55 274.65 239.46 276.60 239.42 277.58 C 238.39 277.56 236.32 277.52 235.29 277.51 C 235.36 276.48 235.48 274.42 235.55 273.39 Z" />
<path fill="#24211c" opacity="1.00" d=" M 386.45 288.79 C 385.00 286.86 380.13 283.59 383.81 281.69 C 389.11 284.85 394.22 288.41 399.12 292.14 C 401.15 294.91 397.04 295.82 395.02 296.17 C 389.74 296.74 384.51 297.80 379.19 297.93 C 379.32 296.81 379.45 295.70 379.59 294.59 C 381.48 294.13 383.37 293.68 385.27 293.24 C 385.66 291.75 386.05 290.27 386.45 288.79 Z" />
<path fill="#24211c" opacity="1.00" d=" M 281.36 284.66 C 282.72 284.64 284.08 284.63 285.44 284.62 C 285.44 286.17 285.43 287.73 285.41 289.29 C 284.10 289.31 282.79 289.33 281.49 289.36 C 281.43 287.79 281.38 286.23 281.36 284.66 Z" />
<path fill="#24211c" opacity="1.00" d=" M 203.87 286.58 C 205.42 286.18 206.96 285.71 208.52 285.29 C 208.51 286.87 208.61 288.48 208.34 290.05 C 207.17 290.25 205.98 290.36 204.81 290.49 C 204.50 289.18 204.20 287.87 203.87 286.58 Z" />
<path fill="#24211c" opacity="1.00" d=" M 212.57 284.62 C 213.60 284.59 215.66 284.53 216.69 284.51 C 216.69 285.56 216.70 287.66 216.70 288.71 C 215.69 288.69 213.68 288.65 212.67 288.63 C 212.65 287.63 212.60 285.62 212.57 284.62 Z" />
<path fill="#24211c" opacity="1.00" d=" M 221.32 289.29 C 221.30 287.62 221.32 285.95 221.39 284.29 C 222.87 284.71 224.35 285.15 225.83 285.61 C 225.33 286.88 224.83 288.16 224.34 289.43 C 223.58 289.39 222.07 289.32 221.32 289.29 Z" />
<path fill="#24211c" opacity="1.00" d=" M 289.55 284.55 C 290.58 284.56 292.63 284.56 293.65 284.57 C 293.65 285.61 293.66 287.68 293.66 288.72 C 292.64 288.69 290.58 288.63 289.55 288.60 C 289.55 287.59 289.55 285.57 289.55 284.55 Z" />
<path fill="#24211c" opacity="1.00" d=" M 229.69 286.52 C 230.09 286.55 230.89 286.62 231.29 286.65 C 231.88 286.94 233.06 287.52 233.66 287.81 C 233.47 289.05 233.29 290.28 233.11 291.53 C 231.57 291.36 229.99 291.16 228.67 290.28 C 228.93 289.01 229.34 287.77 229.69 286.52 Z" />
<path fill="#24211c" opacity="1.00" d=" M 272.49 287.73 C 274.09 287.30 275.69 286.83 277.28 286.36 C 277.36 287.96 277.43 289.57 277.47 291.18 C 276.29 291.26 275.11 291.34 273.94 291.43 C 273.47 290.18 272.99 288.95 272.49 287.73 Z" />
<path fill="#24211c" opacity="1.00" d=" M 297.36 289.23 C 297.82 287.87 298.28 286.51 298.75 285.15 C 300.02 285.66 301.28 286.20 302.53 286.78 C 302.16 288.07 301.77 289.35 301.36 290.63 C 300.02 290.17 298.69 289.70 297.36 289.23 Z" />
<path fill="#24211c" opacity="1.00" d=" M 187.39 287.96 C 187.79 287.59 188.58 286.85 188.98 286.48 C 190.19 286.93 191.39 287.39 192.60 287.85 C 192.18 289.18 191.76 290.51 191.34 291.84 C 189.37 291.18 186.89 290.61 187.39 287.96 Z" />
<path fill="#24211c" opacity="1.00" d=" M 314.40 287.77 C 315.07 287.43 316.41 286.75 317.08 286.41 C 317.52 286.76 318.39 287.48 318.82 287.83 C 319.33 290.81 317.12 291.67 314.60 291.66 C 314.55 290.69 314.45 288.74 314.40 287.77 Z" />
<path fill="#24211c" opacity="1.00" d=" M 196.25 287.33 C 197.30 287.35 199.39 287.38 200.44 287.40 C 200.44 288.38 200.44 290.36 200.44 291.34 C 199.45 291.37 197.46 291.43 196.47 291.46 C 196.41 290.43 196.31 288.36 196.25 287.33 Z" />
<path fill="#24211c" opacity="1.00" d=" M 306.31 287.25 C 307.44 287.31 309.69 287.44 310.81 287.50 C 310.94 290.41 309.36 292.21 306.33 291.58 C 306.33 290.50 306.32 288.33 306.31 287.25 Z" />
<path fill="#24211c" opacity="1.00" d=" M 108.29 290.66 C 110.45 289.39 112.79 288.48 115.24 287.90 C 117.98 290.19 120.06 293.12 120.89 296.63 C 123.14 296.21 125.37 295.76 127.61 295.29 C 127.66 296.51 127.71 297.74 127.77 298.97 C 122.29 300.46 116.75 301.79 111.42 303.81 C 108.32 300.13 108.17 295.23 108.29 290.66 M 112.28 292.45 C 112.36 294.49 112.44 296.53 112.53 298.58 C 113.93 298.48 115.34 298.39 116.74 298.30 C 116.36 296.38 115.98 294.46 115.65 292.53 C 114.52 292.50 113.40 292.47 112.28 292.45 Z" />
<path fill="#24211c" opacity="1.00" d=" M 207.46 302.81 C 208.78 302.76 210.11 302.72 211.43 302.68 C 211.46 304.20 211.49 305.73 211.50 307.27 C 210.14 307.31 208.78 307.36 207.43 307.42 C 207.42 305.88 207.43 304.34 207.46 302.81 Z" />
<path fill="#24211c" opacity="1.00" d=" M 286.62 302.62 C 287.96 302.58 289.31 302.54 290.66 302.50 C 290.67 303.90 290.69 305.31 290.71 306.72 C 289.33 306.68 287.96 306.65 286.59 306.62 C 286.60 305.28 286.61 303.95 286.62 302.62 Z" />
<path fill="#24211c" opacity="1.00" d=" M 215.64 302.59 C 216.65 302.58 218.67 302.56 219.68 302.55 C 219.69 303.60 219.71 305.69 219.73 306.74 C 218.69 306.70 216.60 306.62 215.56 306.58 C 215.58 305.58 215.62 303.58 215.64 302.59 Z" />
<path fill="#24211c" opacity="1.00" d=" M 223.74 303.48 C 225.32 303.51 226.91 303.55 228.49 303.61 C 228.44 304.43 228.38 305.24 228.33 306.07 C 228.09 306.58 227.60 307.60 227.36 308.11 C 226.09 308.08 224.91 307.40 223.66 307.15 C 223.68 305.92 223.72 304.70 223.74 303.48 Z" />
<path fill="#24211c" opacity="1.00" d=" M 278.31 303.60 C 279.70 303.54 281.10 303.48 282.49 303.44 C 282.52 304.46 282.57 306.50 282.59 307.52 C 281.24 307.55 279.89 307.58 278.55 307.61 C 278.46 306.27 278.38 304.93 278.31 303.60 Z" />
<path fill="#24211c" opacity="1.00" d=" M 303.45 303.62 C 304.35 303.64 305.26 303.62 306.17 303.66 C 306.68 303.97 307.69 304.61 308.19 304.93 C 307.93 305.19 307.40 305.73 307.14 305.99 C 307.45 306.37 308.08 307.12 308.39 307.50 C 306.60 307.57 304.81 307.60 303.03 307.62 C 303.05 306.27 303.28 304.94 303.45 303.62 Z" />
<path fill="#24211c" opacity="1.00" d=" M 182.45 304.29 C 183.84 304.31 185.24 304.33 186.64 304.36 C 186.57 305.74 186.50 307.13 186.43 308.52 C 185.12 308.42 183.81 308.33 182.51 308.25 C 182.48 306.93 182.46 305.61 182.45 304.29 Z" />
<path fill="#24211c" opacity="1.00" d=" M 190.59 304.59 C 191.94 304.55 193.28 304.51 194.63 304.48 C 194.67 305.86 194.71 307.24 194.76 308.63 C 193.34 308.62 191.93 308.61 190.53 308.60 C 190.55 307.26 190.57 305.92 190.59 304.59 Z" />
<path fill="#24211c" opacity="1.00" d=" M 198.60 304.79 C 199.96 303.70 201.47 303.36 203.12 303.77 C 203.24 304.75 203.49 306.70 203.62 307.68 C 201.37 307.75 197.78 308.35 198.60 304.79 Z" />
<path fill="#24211c" opacity="1.00" d=" M 294.91 303.37 C 296.14 303.37 298.60 303.37 299.83 303.37 C 299.29 304.84 298.81 306.34 298.39 307.86 C 297.44 307.43 295.54 306.59 294.59 306.16 C 294.67 305.47 294.83 304.07 294.91 303.37 Z" />
<path fill="#24211c" opacity="1.00" d=" M 232.75 305.44 C 234.05 305.58 235.34 305.72 236.65 305.87 C 236.34 307.47 235.88 309.04 235.39 310.60 C 234.13 310.12 232.86 309.64 231.59 309.19 C 231.61 308.84 231.65 308.14 231.68 307.79 C 231.95 307.20 232.48 306.03 232.75 305.44 Z" />
<path fill="#24211c" opacity="1.00" d=" M 270.41 305.77 C 271.71 305.67 273.02 305.57 274.33 305.49 C 274.45 306.84 274.56 308.20 274.68 309.57 C 273.64 309.62 271.56 309.73 270.52 309.79 C 270.46 308.44 270.43 307.11 270.41 305.77 Z" />
<path fill="#24211c" opacity="1.00" d=" M 311.89 304.97 C 312.81 304.81 314.67 304.49 315.59 304.33 C 315.62 305.42 315.68 307.60 315.71 308.69 C 314.60 308.64 312.38 308.54 311.27 308.49 C 311.42 307.61 311.73 305.85 311.89 304.97 Z" />
<path fill="#24211c" opacity="1.00" d=" M 321.21 305.49 C 322.87 304.95 323.44 305.48 322.93 307.09 C 321.26 307.63 320.69 307.09 321.21 305.49 Z" />
<path fill="#24211c" opacity="1.00" d=" M 239.54 309.44 C 240.58 309.45 242.65 309.49 243.68 309.50 C 243.62 310.52 243.49 312.54 243.42 313.55 C 242.43 313.50 240.45 313.40 239.45 313.35 C 239.48 312.37 239.52 310.42 239.54 309.44 Z" />
<path fill="#24211c" opacity="1.00" d=" M 262.26 310.65 C 263.49 309.81 264.83 309.24 266.30 308.93 C 266.60 309.71 267.20 311.28 267.50 312.07 C 267.15 313.78 264.95 313.27 263.72 313.83 C 263.36 313.04 262.63 311.45 262.26 310.65 Z" />
<path fill="#24211c" opacity="1.00" d=" M 146.33 386.80 C 146.28 382.36 146.30 377.92 146.52 373.49 C 149.34 373.54 152.20 373.35 154.99 373.86 C 158.10 375.42 156.64 379.66 154.79 381.72 C 155.55 383.44 156.36 385.13 157.24 386.80 C 156.61 386.74 155.34 386.62 154.71 386.55 C 153.22 384.85 152.32 381.93 149.89 381.53 C 148.16 382.66 148.64 384.83 148.36 386.58 C 147.85 386.64 146.83 386.74 146.33 386.80 M 148.07 376.54 C 148.51 377.37 149.40 379.04 149.85 379.88 C 152.09 379.69 154.01 378.74 155.25 376.80 C 152.95 375.68 150.41 375.29 148.07 376.54 Z" />
<path fill="#24211c" opacity="1.00" d=" M 162.45 374.36 C 164.28 372.89 166.92 373.40 169.06 373.74 C 175.28 376.47 173.44 388.36 166.05 387.61 C 159.37 387.62 157.22 377.91 162.45 374.36 M 163.49 376.52 C 160.89 379.37 162.59 385.85 167.11 385.49 C 170.08 384.15 171.35 380.13 169.64 377.34 C 168.43 375.21 165.28 374.95 163.49 376.52 Z" />
<path fill="#24211c" opacity="1.00" d=" M 175.94 384.91 C 175.28 380.94 174.85 376.49 176.97 372.86 C 178.81 376.47 178.30 380.57 178.34 384.48 C 179.03 384.77 180.40 385.34 181.09 385.63 C 181.70 385.27 182.90 384.54 183.50 384.18 C 183.59 380.95 183.59 377.71 183.50 374.48 C 184.50 374.41 185.49 374.41 186.49 374.47 C 186.39 377.63 186.60 380.84 186.01 383.98 C 185.05 388.46 177.75 388.92 175.94 384.91 Z" />
<path fill="#24211c" opacity="1.00" d=" M 190.24 374.21 C 191.97 372.76 194.89 373.65 197.05 373.82 C 200.94 374.89 201.00 379.61 200.63 382.87 C 200.58 385.71 197.48 387.09 195.05 387.40 C 193.26 387.40 190.63 388.28 189.81 386.07 C 189.59 382.19 188.90 377.86 190.24 374.21 M 192.40 384.65 C 194.12 384.61 195.84 384.57 197.57 384.55 C 198.56 381.86 198.46 379.03 197.69 376.31 C 196.03 376.07 194.37 375.76 192.71 375.50 C 192.10 378.51 192.34 381.60 192.40 384.65 Z" />
<path fill="#24211c" opacity="1.00" d=" M 204.48 387.57 C 203.45 382.70 202.83 377.43 204.91 372.75 C 207.29 376.17 206.25 380.47 206.40 384.36 C 208.87 384.64 211.33 385.07 213.72 385.79 C 211.28 388.30 207.58 387.33 204.48 387.57 Z" />
<path fill="#24211c" opacity="1.00" d=" M 218.27 374.22 C 222.09 371.98 228.39 374.02 228.52 378.99 C 229.69 383.77 225.03 389.31 220.03 387.21 C 214.35 385.84 213.83 377.28 218.27 374.22 M 218.78 376.56 C 218.35 378.15 217.91 379.72 217.46 381.31 C 218.68 383.17 220.22 384.78 221.99 386.14 C 224.14 384.57 225.82 382.50 226.79 380.01 C 226.02 378.83 225.32 377.61 224.43 376.51 C 223.01 374.52 220.60 376.21 218.78 376.56 Z" />
<path fill="#24211c" opacity="1.00" d=" M 230.50 373.82 C 233.79 373.80 237.54 372.65 240.48 374.66 C 239.40 375.57 237.40 375.47 236.78 376.89 C 236.38 380.38 236.59 383.90 236.47 387.41 C 235.96 387.43 234.94 387.48 234.43 387.50 C 234.38 384.00 234.33 380.50 234.31 377.00 C 233.05 375.93 231.77 374.87 230.50 373.82 Z" />
<path fill="#24211c" opacity="1.00" d=" M 243.32 374.23 C 243.88 374.25 245.01 374.29 245.57 374.31 C 245.54 377.24 245.33 380.18 245.72 383.10 C 246.31 384.56 248.09 385.06 249.15 386.15 C 252.30 382.95 251.50 378.34 251.49 374.27 C 252.05 374.26 253.18 374.22 253.75 374.20 C 253.74 378.00 253.68 381.81 253.63 385.61 C 250.86 387.86 245.83 388.87 243.72 385.27 C 242.97 381.64 243.40 377.90 243.32 374.23 Z" />
<path fill="#24211c" opacity="1.00" d=" M 257.35 374.29 C 257.92 374.28 259.07 374.26 259.64 374.25 C 259.52 377.66 259.65 381.08 260.08 384.47 C 262.25 384.81 264.42 385.19 266.60 385.54 C 266.60 386.03 266.60 387.00 266.59 387.48 C 263.57 387.46 260.56 387.45 257.54 387.46 C 257.40 383.07 257.37 378.68 257.35 374.29 Z" />
<path fill="#24211c" opacity="1.00" d=" M 279.55 384.67 C 279.90 380.74 278.31 376.17 280.94 372.77 C 282.03 377.06 283.10 381.85 281.06 386.03 C 279.80 387.83 277.36 387.33 275.47 387.59 C 274.82 386.91 274.16 386.24 273.51 385.57 C 273.60 384.50 273.69 383.43 273.79 382.36 C 275.47 383.66 277.31 384.89 279.55 384.67 Z" />
<path fill="#24211c" opacity="1.00" d=" M 288.25 376.11 C 288.90 374.98 289.41 373.02 291.16 373.37 C 294.40 377.29 295.66 382.45 296.98 387.26 C 295.05 385.96 293.10 384.67 291.01 383.66 C 288.89 383.05 287.70 385.40 286.27 386.48 C 285.73 386.58 284.65 386.79 284.11 386.89 C 285.48 383.29 286.71 379.64 288.25 376.11 M 290.44 376.85 C 289.97 378.48 289.51 380.11 289.06 381.75 C 290.34 381.62 291.63 381.49 292.92 381.37 C 292.05 379.88 291.22 378.37 290.44 376.85 Z" />
<path fill="#24211c" opacity="1.00" d=" M 299.48 374.29 C 300.50 374.30 301.52 374.32 302.55 374.34 C 303.83 376.92 305.50 379.26 307.42 381.40 C 307.61 378.50 307.86 375.56 308.98 372.85 C 311.40 377.47 310.93 383.32 309.23 388.11 C 306.74 385.70 304.97 382.71 302.97 379.91 C 300.82 381.43 301.91 384.47 301.55 386.72 C 301.03 386.71 300.01 386.67 299.50 386.65 C 299.56 382.53 299.56 378.41 299.48 374.29 Z" />
<path fill="#24211c" opacity="1.00" d=" M 315.37 387.40 C 312.09 383.39 313.56 377.34 314.78 372.74 C 317.29 375.32 319.35 378.29 321.41 381.23 C 321.74 378.86 322.06 376.48 322.38 374.11 C 322.92 374.22 324.01 374.46 324.55 374.58 C 324.26 379.12 325.45 384.01 323.19 388.21 C 321.00 385.35 318.85 382.46 316.66 379.60 C 316.25 382.21 315.85 384.81 315.37 387.40 Z" />
<path fill="#24211c" opacity="1.00" d=" M 327.04 387.31 C 328.14 382.19 330.10 377.26 332.93 372.84 C 337.02 376.36 337.67 382.09 339.92 386.73 C 337.94 387.11 336.69 385.64 335.49 384.38 C 333.93 384.36 332.38 384.37 330.84 384.42 C 329.63 385.45 328.39 386.46 327.04 387.31 M 331.11 381.44 C 332.37 381.51 333.64 381.60 334.91 381.69 C 334.44 380.08 333.97 378.48 333.51 376.88 C 332.75 378.42 331.94 379.93 331.11 381.44 Z" />
<path fill="#24211c" opacity="1.00" d=" M 342.33 374.21 C 342.89 374.23 344.00 374.26 344.56 374.28 C 344.54 375.67 344.52 377.06 344.50 378.46 C 346.51 378.88 348.56 379.12 350.59 378.62 C 350.52 377.15 350.45 375.69 350.39 374.23 C 350.96 374.23 352.10 374.25 352.66 374.26 C 353.26 378.40 352.93 382.57 352.53 386.71 C 352.04 386.71 351.06 386.72 350.57 386.72 C 350.50 385.09 350.45 383.45 350.26 381.84 C 348.47 381.01 346.38 381.55 344.47 381.47 C 344.48 383.22 344.51 384.98 344.53 386.73 C 343.97 386.74 342.86 386.75 342.31 386.76 C 342.30 382.58 342.32 378.39 342.33 374.21 Z" />
<path fill="#24211c" opacity="1.00" d=" M 189.43 398.81 C 189.16 396.18 192.29 395.44 193.97 394.20 C 196.30 395.03 198.95 395.82 199.13 398.74 C 196.92 398.08 194.68 397.51 192.42 397.08 C 192.40 397.66 192.36 398.81 192.35 399.39 C 194.88 400.27 197.39 401.25 199.84 402.37 C 199.71 404.03 199.66 405.71 199.35 407.36 C 196.10 410.40 190.23 409.65 188.82 405.12 C 191.41 405.80 194.01 406.47 196.65 406.92 C 196.64 405.81 196.64 404.71 196.63 403.61 C 194.08 402.54 189.48 402.43 189.43 398.81 Z" />
<path fill="#24211c" opacity="1.00" d=" M 204.10 394.42 C 206.31 398.05 205.29 402.44 205.55 406.47 C 207.18 406.50 208.81 406.52 210.45 406.55 C 211.22 402.88 211.52 399.14 211.42 395.39 C 211.95 395.41 213.00 395.44 213.53 395.46 C 213.48 399.33 214.05 403.30 213.12 407.10 C 210.64 409.48 206.08 410.45 203.78 407.31 C 201.85 403.30 202.12 398.37 204.10 394.42 Z" />
<path fill="#24211c" opacity="1.00" d=" M 217.38 395.45 C 220.35 395.45 223.36 395.14 226.30 395.69 C 227.21 396.69 227.95 397.82 228.74 398.92 C 227.67 400.27 226.61 401.62 225.54 402.98 C 226.62 404.99 227.55 407.08 228.10 409.30 C 225.39 408.20 223.72 405.78 222.17 403.45 C 221.29 403.48 220.40 403.52 219.53 403.56 C 219.54 405.21 219.55 406.87 219.57 408.52 C 219.03 408.58 217.93 408.70 217.39 408.76 C 217.32 404.32 217.29 399.88 217.38 395.45 M 219.85 397.12 C 219.80 397.94 219.70 399.56 219.65 400.37 C 221.73 400.70 223.83 400.64 225.92 400.55 C 225.72 397.28 222.36 397.25 219.85 397.12 Z" />
<path fill="#24211c" opacity="1.00" d=" M 234.58 396.58 C 234.90 395.31 236.47 395.46 237.48 395.33 C 240.29 399.48 241.88 404.37 242.93 409.24 C 241.40 408.29 240.01 407.14 238.78 405.83 C 237.53 405.72 236.27 405.63 235.02 405.56 C 233.59 407.04 231.99 408.37 230.08 409.20 C 231.12 404.85 232.69 400.63 234.58 396.58 M 235.07 403.56 C 235.78 403.57 237.20 403.59 237.90 403.60 C 237.75 402.05 237.29 400.56 237.11 399.03 C 235.02 399.52 235.55 401.97 235.07 403.56 Z" />
<path fill="#24211c" opacity="1.00" d=" M 245.49 395.51 C 245.98 395.47 246.96 395.39 247.45 395.35 C 247.80 397.01 248.15 398.67 248.50 400.35 C 250.80 398.24 252.98 395.74 256.13 394.93 C 255.13 397.09 253.81 399.07 252.41 400.98 C 254.10 403.50 255.71 406.07 257.11 408.76 C 252.75 409.42 252.74 403.13 248.60 403.08 C 248.18 404.96 247.77 406.83 247.38 408.72 C 246.91 408.68 245.96 408.61 245.49 408.58 C 245.47 404.22 245.46 399.86 245.49 395.51 Z" />
<path fill="#24211c" opacity="1.00" d=" M 263.41 395.35 C 264.37 395.39 265.33 395.43 266.29 395.48 C 268.03 400.03 270.72 404.39 270.79 409.40 C 269.46 408.19 268.15 406.98 266.82 405.78 C 265.58 405.73 264.34 405.69 263.11 405.66 C 261.77 406.84 260.44 408.03 259.09 409.19 C 259.39 404.28 261.51 399.80 263.41 395.35 M 264.23 399.04 C 263.78 400.54 263.46 402.08 263.13 403.62 C 264.36 403.51 265.58 403.40 266.80 403.30 C 266.18 401.75 265.84 399.88 264.23 399.04 Z" />
<path fill="#24211c" opacity="1.00" d=" M 286.67 395.57 C 290.35 395.24 294.04 395.31 297.71 395.79 C 296.33 396.52 294.95 397.26 293.57 397.98 C 293.52 401.43 293.52 404.88 293.57 408.33 C 293.04 408.45 291.97 408.68 291.44 408.80 C 291.41 405.17 291.07 401.57 290.48 398.00 C 289.23 397.15 287.96 396.35 286.67 395.57 Z" />
<path fill="#24211c" opacity="1.00" d=" M 302.53 395.39 C 303.48 395.43 304.42 395.48 305.37 395.54 C 307.30 399.87 309.08 404.27 310.57 408.78 C 308.38 408.88 307.06 407.17 305.80 405.67 C 304.57 405.65 303.34 405.64 302.12 405.64 C 300.78 406.82 299.44 407.99 298.09 409.14 C 298.22 404.20 300.54 399.78 302.53 395.39 M 302.65 399.71 C 302.56 400.97 302.48 402.24 302.40 403.52 C 303.49 403.50 304.59 403.48 305.69 403.46 C 305.26 402.06 304.82 400.66 304.40 399.27 C 303.96 399.38 303.09 399.60 302.65 399.71 Z" />
<path fill="#24211c" opacity="1.00" d=" M 273.93 395.70 C 277.47 394.93 281.11 395.39 284.56 396.35 C 284.56 397.71 284.55 399.07 284.55 400.44 C 283.76 401.25 282.96 402.07 282.18 402.90 C 283.19 404.82 284.18 406.76 285.16 408.72 C 284.54 408.66 283.32 408.54 282.71 408.48 C 281.13 406.20 279.43 403.82 276.64 402.98 C 276.09 404.91 277.34 408.97 274.22 408.80 C 273.22 404.51 273.48 400.04 273.93 395.70 M 276.46 397.40 C 276.43 398.68 276.40 399.97 276.38 401.27 C 278.11 400.95 279.87 400.70 281.64 400.74 C 281.63 399.64 281.63 398.55 281.62 397.46 C 279.90 397.43 278.18 397.41 276.46 397.40 Z" />
</g>
<g id="#fefefeff">
<path fill="#fefefe" opacity="1.00" d=" M 182.99 261.44 C 184.69 261.57 186.39 261.75 188.04 262.18 C 194.65 262.84 201.38 262.91 207.95 261.82 C 210.05 261.52 212.19 261.42 214.31 261.64 C 217.46 261.95 220.62 261.81 223.78 261.88 C 230.38 263.29 236.86 265.25 242.63 268.86 C 241.87 274.24 241.58 279.70 240.59 285.05 C 240.08 288.81 235.55 290.56 235.72 294.60 C 236.98 294.81 238.25 295.02 239.52 295.23 C 243.15 300.08 244.58 306.04 247.29 311.36 C 246.70 312.97 246.17 314.59 245.64 316.22 C 245.92 316.96 246.21 317.71 246.50 318.46 C 247.40 318.43 249.21 318.36 250.11 318.33 C 250.26 322.03 250.17 325.73 250.29 329.44 L 250.30 329.67 C 253.10 329.75 255.90 329.69 258.70 329.66 C 258.72 326.39 258.14 323.18 257.54 319.99 C 257.79 319.54 258.28 318.66 258.53 318.22 C 259.04 317.87 260.07 317.17 260.58 316.82 C 259.40 314.59 259.47 312.18 260.72 309.99 C 261.46 308.29 262.16 306.57 262.85 304.85 C 264.06 301.80 264.86 298.53 266.63 295.73 C 268.00 294.74 269.50 293.94 270.94 293.05 C 269.83 291.65 268.58 290.41 266.84 289.90 C 266.61 286.90 266.56 283.86 265.99 280.90 C 265.53 276.64 264.63 272.42 264.54 268.14 C 266.09 267.56 267.61 266.92 269.15 266.31 C 271.94 264.92 274.84 263.80 277.77 262.77 C 289.35 259.26 301.26 263.17 313.01 262.62 C 316.68 262.71 320.25 261.68 323.91 261.45 C 325.95 267.42 328.68 273.12 331.17 278.92 C 332.19 281.23 333.15 283.58 334.21 285.89 C 335.03 287.97 335.90 290.05 336.73 292.14 C 337.77 294.45 338.80 296.77 339.83 299.10 C 340.84 301.43 341.85 303.76 342.77 306.13 C 343.79 308.45 344.83 310.77 345.81 313.12 C 347.66 317.21 349.47 321.32 351.03 325.54 C 343.12 327.16 334.96 326.29 326.94 326.24 C 323.98 325.60 320.96 325.47 317.96 325.23 C 315.33 324.57 312.63 324.41 309.94 324.20 C 306.99 323.53 303.95 323.40 300.94 323.18 C 292.28 321.93 283.39 323.52 275.11 326.15 C 271.30 327.45 267.63 329.11 263.97 330.78 C 260.63 332.54 257.27 334.26 254.09 336.30 C 253.79 336.31 253.19 336.33 252.89 336.34 C 249.37 334.11 245.70 332.13 241.94 330.34 C 240.03 329.41 238.06 328.64 236.16 327.72 C 234.76 327.22 233.37 326.73 231.98 326.21 C 226.53 324.20 220.79 323.50 215.08 322.77 C 212.70 322.71 210.32 322.72 207.95 322.79 C 202.29 323.56 196.60 324.12 190.93 324.79 C 187.99 325.46 184.96 325.55 181.97 325.83 C 173.43 327.06 164.75 326.25 156.16 326.22 C 156.51 324.37 157.03 322.56 157.67 320.80 C 158.92 318.26 160.02 315.66 161.16 313.08 C 162.18 310.74 163.20 308.39 164.20 306.04 C 166.79 299.75 169.55 293.53 172.22 287.28 C 173.42 284.17 174.83 281.14 176.18 278.09 C 176.87 276.43 177.60 274.79 178.36 273.17 C 178.58 272.64 179.02 271.59 179.24 271.06 C 180.05 268.97 180.96 266.93 181.89 264.89 C 182.29 263.75 182.65 262.60 182.99 261.44 M 210.53 271.66 C 210.53 273.00 210.52 274.33 210.52 275.67 C 211.92 275.65 213.30 275.61 214.71 275.59 C 214.65 274.21 214.61 272.84 214.57 271.46 C 213.22 271.53 211.87 271.60 210.53 271.66 M 220.94 275.37 C 223.14 275.73 223.11 272.98 223.79 271.66 C 223.06 271.40 221.59 270.89 220.86 270.63 C 218.03 270.67 217.59 276.40 220.94 275.37 M 227.38 271.32 C 227.35 272.71 227.33 274.10 227.31 275.49 C 228.64 275.50 229.98 275.51 231.31 275.51 C 231.41 274.21 231.52 272.91 231.62 271.61 C 230.21 271.51 228.79 271.41 227.38 271.32 M 194.38 272.17 C 193.59 274.00 192.93 277.09 196.07 276.44 C 198.51 277.40 198.35 274.03 198.63 272.62 C 197.21 272.46 195.79 272.31 194.38 272.17 M 275.24 271.51 C 275.28 272.53 275.35 274.57 275.39 275.58 C 276.41 275.54 278.46 275.44 279.49 275.39 C 279.47 274.40 279.43 272.42 279.41 271.44 C 278.37 271.45 276.28 271.49 275.24 271.51 M 284.45 272.09 C 284.46 272.56 284.47 273.48 284.48 273.95 C 287.42 276.76 287.30 269.21 284.45 272.09 M 291.33 275.50 C 292.85 275.55 294.36 275.59 295.89 275.62 C 295.79 274.21 295.68 272.80 295.58 271.40 C 292.62 270.66 291.11 272.73 291.33 275.50 M 300.35 272.39 C 300.33 273.78 300.30 275.18 300.29 276.58 C 301.32 276.56 303.36 276.52 304.38 276.50 C 304.40 275.22 304.43 273.94 304.46 272.67 C 303.08 272.57 301.71 272.48 300.35 272.39 M 202.41 272.56 C 202.41 273.57 202.41 275.58 202.41 276.58 C 203.44 276.56 205.52 276.50 206.55 276.48 C 206.53 275.48 206.48 273.49 206.45 272.49 C 205.44 272.51 203.42 272.54 202.41 272.56 M 267.26 273.57 C 267.29 274.61 267.35 276.68 267.38 277.71 C 268.76 277.61 270.15 277.49 271.55 277.37 C 271.43 276.07 271.31 274.77 271.19 273.47 C 269.88 273.49 268.57 273.52 267.26 273.57 M 308.38 272.44 C 308.41 273.46 308.48 275.49 308.51 276.51 C 309.53 276.46 311.55 276.37 312.56 276.32 C 312.55 275.32 312.54 273.31 312.53 272.31 C 311.49 272.35 309.42 272.41 308.38 272.44 M 235.55 273.39 C 235.48 274.42 235.36 276.48 235.29 277.51 C 236.32 277.52 238.39 277.56 239.42 277.58 C 239.46 276.60 239.55 274.65 239.60 273.68 C 238.58 273.61 236.56 273.46 235.55 273.39 M 281.36 284.66 C 281.38 286.23 281.43 287.79 281.49 289.36 C 282.79 289.33 284.10 289.31 285.41 289.29 C 285.43 287.73 285.44 286.17 285.44 284.62 C 284.08 284.63 282.72 284.64 281.36 284.66 M 203.87 286.58 C 204.20 287.87 204.50 289.18 204.81 290.49 C 205.98 290.36 207.17 290.25 208.34 290.05 C 208.61 288.48 208.51 286.87 208.52 285.29 C 206.96 285.71 205.42 286.18 203.87 286.58 M 212.57 284.62 C 212.60 285.62 212.65 287.63 212.67 288.63 C 213.68 288.65 215.69 288.69 216.70 288.71 C 216.70 287.66 216.69 285.56 216.69 284.51 C 215.66 284.53 213.60 284.59 212.57 284.62 M 221.32 289.29 C 222.07 289.32 223.58 289.39 224.34 289.43 C 224.83 288.16 225.33 286.88 225.83 285.61 C 224.35 285.15 222.87 284.71 221.39 284.29 C 221.32 285.95 221.30 287.62 221.32 289.29 M 289.55 284.55 C 289.55 285.57 289.55 287.59 289.55 288.60 C 290.58 288.63 292.64 288.69 293.66 288.72 C 293.66 287.68 293.65 285.61 293.65 284.57 C 292.63 284.56 290.58 284.56 289.55 284.55 M 229.69 286.52 C 229.34 287.77 228.93 289.01 228.67 290.28 C 229.99 291.16 231.57 291.36 233.11 291.53 C 233.29 290.28 233.47 289.05 233.66 287.81 C 233.06 287.52 231.88 286.94 231.29 286.65 C 230.89 286.62 230.09 286.55 229.69 286.52 M 272.49 287.73 C 272.99 288.95 273.47 290.18 273.94 291.43 C 275.11 291.34 276.29 291.26 277.47 291.18 C 277.43 289.57 277.36 287.96 277.28 286.36 C 275.69 286.83 274.09 287.30 272.49 287.73 M 297.36 289.23 C 298.69 289.70 300.02 290.17 301.36 290.63 C 301.77 289.35 302.16 288.07 302.53 286.78 C 301.28 286.20 300.02 285.66 298.75 285.15 C 298.28 286.51 297.82 287.87 297.36 289.23 M 187.39 287.96 C 186.89 290.61 189.37 291.18 191.34 291.84 C 191.76 290.51 192.18 289.18 192.60 287.85 C 191.39 287.39 190.19 286.93 188.98 286.48 C 188.58 286.85 187.79 287.59 187.39 287.96 M 314.40 287.77 C 314.45 288.74 314.55 290.69 314.60 291.66 C 317.12 291.67 319.33 290.81 318.82 287.83 C 318.39 287.48 317.52 286.76 317.08 286.41 C 316.41 286.75 315.07 287.43 314.40 287.77 M 196.25 287.33 C 196.31 288.36 196.41 290.43 196.47 291.46 C 197.46 291.43 199.45 291.37 200.44 291.34 C 200.44 290.36 200.44 288.38 200.44 287.40 C 199.39 287.38 197.30 287.35 196.25 287.33 M 306.31 287.25 C 306.32 288.33 306.33 290.50 306.33 291.58 C 309.36 292.21 310.94 290.41 310.81 287.50 C 309.69 287.44 307.44 287.31 306.31 287.25 M 207.46 302.81 C 207.43 304.34 207.42 305.88 207.43 307.42 C 208.78 307.36 210.14 307.31 211.50 307.27 C 211.49 305.73 211.46 304.20 211.43 302.68 C 210.11 302.72 208.78 302.76 207.46 302.81 M 286.62 302.62 C 286.61 303.95 286.60 305.28 286.59 306.62 C 287.96 306.65 289.33 306.68 290.71 306.72 C 290.69 305.31 290.67 303.90 290.66 302.50 C 289.31 302.54 287.96 302.58 286.62 302.62 M 215.64 302.59 C 215.62 303.58 215.58 305.58 215.56 306.58 C 216.60 306.62 218.69 306.70 219.73 306.74 C 219.71 305.69 219.69 303.60 219.68 302.55 C 218.67 302.56 216.65 302.58 215.64 302.59 M 223.74 303.48 C 223.72 304.70 223.68 305.92 223.66 307.15 C 224.91 307.40 226.09 308.08 227.36 308.11 C 227.60 307.60 228.09 306.58 228.33 306.07 C 228.38 305.24 228.44 304.43 228.49 303.61 C 226.91 303.55 225.32 303.51 223.74 303.48 M 278.31 303.60 C 278.38 304.93 278.46 306.27 278.55 307.61 C 279.89 307.58 281.24 307.55 282.59 307.52 C 282.57 306.50 282.52 304.46 282.49 303.44 C 281.10 303.48 279.70 303.54 278.31 303.60 M 303.45 303.62 C 303.28 304.94 303.05 306.27 303.03 307.62 C 304.81 307.60 306.60 307.57 308.39 307.50 C 308.08 307.12 307.45 306.37 307.14 305.99 C 307.40 305.73 307.93 305.19 308.19 304.93 C 307.69 304.61 306.68 303.97 306.17 303.66 C 305.26 303.62 304.35 303.64 303.45 303.62 M 319.74 303.85 C 319.70 305.39 319.68 306.93 319.67 308.47 C 321.28 308.42 322.89 308.36 324.51 308.30 C 324.42 306.75 324.33 305.20 324.24 303.66 C 322.74 303.72 321.24 303.78 319.74 303.85 M 182.45 304.29 C 182.46 305.61 182.48 306.93 182.51 308.25 C 183.81 308.33 185.12 308.42 186.43 308.52 C 186.50 307.13 186.57 305.74 186.64 304.36 C 185.24 304.33 183.84 304.31 182.45 304.29 M 190.59 304.59 C 190.57 305.92 190.55 307.26 190.53 308.60 C 191.93 308.61 193.34 308.62 194.76 308.63 C 194.71 307.24 194.67 305.86 194.63 304.48 C 193.28 304.51 191.94 304.55 190.59 304.59 M 198.60 304.79 C 197.78 308.35 201.37 307.75 203.62 307.68 C 203.49 306.70 203.24 304.75 203.12 303.77 C 201.47 303.36 199.96 303.70 198.60 304.79 M 294.91 303.37 C 294.83 304.07 294.67 305.47 294.59 306.16 C 295.54 306.59 297.44 307.43 298.39 307.86 C 298.81 306.34 299.29 304.84 299.83 303.37 C 298.60 303.37 296.14 303.37 294.91 303.37 M 232.75 305.44 C 232.48 306.03 231.95 307.20 231.68 307.79 C 231.65 308.14 231.61 308.84 231.59 309.19 C 232.86 309.64 234.13 310.12 235.39 310.60 C 235.88 309.04 236.34 307.47 236.65 305.87 C 235.34 305.72 234.05 305.58 232.75 305.44 M 270.41 305.77 C 270.43 307.11 270.46 308.44 270.52 309.79 C 271.56 309.73 273.64 309.62 274.68 309.57 C 274.56 308.20 274.45 306.84 274.33 305.49 C 273.02 305.57 271.71 305.67 270.41 305.77 M 311.89 304.97 C 311.73 305.85 311.42 307.61 311.27 308.49 C 312.38 308.54 314.60 308.64 315.71 308.69 C 315.68 307.60 315.62 305.42 315.59 304.33 C 314.67 304.49 312.81 304.81 311.89 304.97 M 239.54 309.44 C 239.52 310.42 239.48 312.37 239.45 313.35 C 240.45 313.40 242.43 313.50 243.42 313.55 C 243.49 312.54 243.62 310.52 243.68 309.50 C 242.65 309.49 240.58 309.45 239.54 309.44 M 262.26 310.65 C 262.63 311.45 263.36 313.04 263.72 313.83 C 264.95 313.27 267.15 313.78 267.50 312.07 C 267.20 311.28 266.60 309.71 266.30 308.93 C 264.83 309.24 263.49 309.81 262.26 310.65 Z" />
<path fill="#fefefe" opacity="1.00" d=" M 251.64 277.27 C 253.10 277.38 254.57 277.50 256.03 277.65 C 256.22 278.04 256.58 278.84 256.77 279.24 C 257.05 279.84 257.62 281.03 257.90 281.63 C 255.21 281.58 252.53 281.51 249.85 281.43 C 250.44 280.04 251.04 278.66 251.64 277.27 Z" />
<path fill="#fefefe" opacity="1.00" d=" M 255.01 286.26 C 255.75 285.69 256.50 285.13 257.26 284.59 C 257.14 285.13 256.89 286.22 256.76 286.76 C 256.01 287.75 255.26 288.76 254.53 289.77 C 253.55 300.10 254.55 310.53 253.99 320.89 L 253.34 321.74 C 253.24 311.14 253.35 300.54 253.38 289.93 C 252.42 288.78 251.47 287.64 250.53 286.49 C 252.02 286.40 253.51 286.33 255.01 286.26 Z" />
<path fill="#fefefe" opacity="1.00" d=" M 251.57 324.76 C 253.61 324.28 255.64 323.77 257.69 323.32 C 257.31 324.96 257.41 326.80 256.50 328.29 C 254.84 328.46 253.18 328.58 251.52 328.66 C 251.53 327.68 251.56 325.74 251.57 324.76 Z" />
<path fill="#fefefe" opacity="1.00" d=" M 193.04 327.21 C 203.60 325.54 214.54 324.31 225.08 326.82 C 226.36 327.20 227.66 327.52 228.96 327.87 C 230.24 328.33 231.52 328.76 232.81 329.21 C 236.33 330.47 239.71 332.07 243.09 333.66 C 246.41 335.44 249.71 337.27 252.85 339.36 C 253.20 339.34 253.89 339.32 254.23 339.31 C 255.84 338.23 257.46 337.20 259.12 336.21 C 263.95 333.53 268.91 331.06 274.14 329.23 C 275.38 328.75 276.66 328.31 277.91 327.83 C 279.25 327.52 280.58 327.13 281.92 326.78 C 294.85 323.60 308.00 326.74 320.96 327.86 C 330.09 329.38 339.45 328.49 348.67 328.58 C 347.00 331.63 345.09 335.14 341.14 335.37 C 337.42 335.29 333.70 335.37 329.99 335.21 C 327.33 334.66 324.61 334.62 321.92 334.57 C 310.61 334.22 299.28 333.83 287.99 334.76 C 286.32 335.22 284.62 335.53 282.91 335.80 C 280.25 336.43 277.61 337.12 274.99 337.89 C 273.98 338.22 272.97 338.55 271.96 338.86 C 270.69 339.31 269.43 339.76 268.17 340.23 C 266.48 340.86 264.80 341.51 263.12 342.17 C 259.92 343.46 256.80 344.93 253.83 346.68 C 250.90 345.43 248.02 344.06 245.14 342.73 C 243.47 342.09 241.82 341.43 240.17 340.77 C 234.89 338.84 229.53 337.13 224.07 335.78 C 222.69 335.58 221.31 335.40 219.94 335.18 C 208.73 333.44 197.28 334.36 185.98 334.55 C 178.71 334.43 171.42 336.25 164.19 334.89 C 160.92 334.45 159.75 330.82 157.89 328.60 C 166.93 328.65 176.00 328.97 185.03 328.24 C 187.64 327.51 190.36 327.48 193.04 327.21 Z" />
</g>
</svg>
